G04 #@! TF.GenerationSoftware,KiCad,Pcbnew,5.0.0-fee4fd1~66~ubuntu18.04.1*
G04 #@! TF.CreationDate,2018-10-08T14:25:46+08:00*
G04 #@! TF.ProjectId,ws2812-stm32-interface,7773323831322D73746D33322D696E74,rev?*
G04 #@! TF.SameCoordinates,Original*
G04 #@! TF.FileFunction,Soldermask,Top*
G04 #@! TF.FilePolarity,Negative*
%FSLAX46Y46*%
G04 Gerber Fmt 4.6, Leading zero omitted, Abs format (unit mm)*
G04 Created by KiCad (PCBNEW 5.0.0-fee4fd1~66~ubuntu18.04.1) date Mon Oct  8 14:25:46 2018*
%MOMM*%
%LPD*%
G01*
G04 APERTURE LIST*
%ADD10R,1.700000X1.900000*%
%ADD11O,2.940000X2.100000*%
%ADD12R,2.900000X2.100000*%
%ADD13R,2.940000X2.400000*%
%ADD14O,2.940000X2.400000*%
%ADD15R,2.000000X1.400000*%
%ADD16C,3.400000*%
%ADD17R,3.400000X3.400000*%
%ADD18R,1.900000X1.650000*%
%ADD19R,1.500000X1.500000*%
%ADD20R,1.960000X1.050000*%
%ADD21O,2.100000X2.940000*%
%ADD22R,2.100000X2.900000*%
G04 APERTURE END LIST*
D10*
G04 #@! TO.C,LD_O1*
X29718000Y-34624000D03*
X29718000Y-31924000D03*
G04 #@! TD*
D11*
G04 #@! TO.C,JP1*
X35814000Y-29210000D03*
X35814000Y-31750000D03*
D12*
X35814000Y-34290000D03*
G04 #@! TD*
D13*
G04 #@! TO.C,J3*
X19685000Y-83820000D03*
D14*
X19685000Y-81280000D03*
X19685000Y-78740000D03*
X19685000Y-76200000D03*
G04 #@! TD*
G04 #@! TO.C,J4*
X24765000Y-76200000D03*
X24765000Y-78740000D03*
X24765000Y-81280000D03*
D13*
X24765000Y-83820000D03*
G04 #@! TD*
D15*
G04 #@! TO.C,D7*
X96741426Y-19228000D03*
X96741426Y-22428000D03*
X101741426Y-19228000D03*
X101741426Y-22428000D03*
G04 #@! TD*
G04 #@! TO.C,D23*
X96741426Y-37080570D03*
X96741426Y-40280570D03*
X101741426Y-37080570D03*
X101741426Y-40280570D03*
G04 #@! TD*
G04 #@! TO.C,D2*
X55658571Y-22428000D03*
X55658571Y-19228000D03*
X50658571Y-22428000D03*
X50658571Y-19228000D03*
G04 #@! TD*
G04 #@! TO.C,D17*
X41442000Y-37080570D03*
X41442000Y-40280570D03*
X46442000Y-37080570D03*
X46442000Y-40280570D03*
G04 #@! TD*
G04 #@! TO.C,D18*
X55658571Y-40280570D03*
X55658571Y-37080570D03*
X50658571Y-40280570D03*
X50658571Y-37080570D03*
G04 #@! TD*
G04 #@! TO.C,D19*
X59875142Y-37080570D03*
X59875142Y-40280570D03*
X64875142Y-37080570D03*
X64875142Y-40280570D03*
G04 #@! TD*
G04 #@! TO.C,D20*
X74091713Y-40280570D03*
X74091713Y-37080570D03*
X69091713Y-40280570D03*
X69091713Y-37080570D03*
G04 #@! TD*
G04 #@! TO.C,D21*
X78308284Y-37080570D03*
X78308284Y-40280570D03*
X83308284Y-37080570D03*
X83308284Y-40280570D03*
G04 #@! TD*
G04 #@! TO.C,D22*
X92524855Y-40280570D03*
X92524855Y-37080570D03*
X87524855Y-40280570D03*
X87524855Y-37080570D03*
G04 #@! TD*
G04 #@! TO.C,D24*
X105958000Y-37080570D03*
X105958000Y-40280570D03*
X110958000Y-37080570D03*
X110958000Y-40280570D03*
G04 #@! TD*
G04 #@! TO.C,D25*
X46442000Y-49206855D03*
X46442000Y-46006855D03*
X41442000Y-49206855D03*
X41442000Y-46006855D03*
G04 #@! TD*
G04 #@! TO.C,D26*
X50658571Y-46006855D03*
X50658571Y-49206855D03*
X55658571Y-46006855D03*
X55658571Y-49206855D03*
G04 #@! TD*
G04 #@! TO.C,D27*
X64875142Y-49206855D03*
X64875142Y-46006855D03*
X59875142Y-49206855D03*
X59875142Y-46006855D03*
G04 #@! TD*
G04 #@! TO.C,D28*
X69091713Y-46006855D03*
X69091713Y-49206855D03*
X74091713Y-46006855D03*
X74091713Y-49206855D03*
G04 #@! TD*
G04 #@! TO.C,D29*
X83308284Y-49206855D03*
X83308284Y-46006855D03*
X78308284Y-49206855D03*
X78308284Y-46006855D03*
G04 #@! TD*
G04 #@! TO.C,D32*
X105958000Y-46006855D03*
X105958000Y-49206855D03*
X110958000Y-46006855D03*
X110958000Y-49206855D03*
G04 #@! TD*
G04 #@! TO.C,D15*
X101741426Y-31354285D03*
X101741426Y-28154285D03*
X96741426Y-31354285D03*
X96741426Y-28154285D03*
G04 #@! TD*
G04 #@! TO.C,D16*
X105958000Y-28154285D03*
X105958000Y-31354285D03*
X110958000Y-28154285D03*
X110958000Y-31354285D03*
G04 #@! TD*
G04 #@! TO.C,D1*
X46442000Y-22428000D03*
X46442000Y-19228000D03*
X41442000Y-22428000D03*
X41442000Y-19228000D03*
G04 #@! TD*
G04 #@! TO.C,D3*
X59875142Y-19228000D03*
X59875142Y-22428000D03*
X64875142Y-19228000D03*
X64875142Y-22428000D03*
G04 #@! TD*
G04 #@! TO.C,D4*
X74091713Y-22428000D03*
X74091713Y-19228000D03*
X69091713Y-22428000D03*
X69091713Y-19228000D03*
G04 #@! TD*
G04 #@! TO.C,D5*
X78308284Y-19228000D03*
X78308284Y-22428000D03*
X83308284Y-19228000D03*
X83308284Y-22428000D03*
G04 #@! TD*
G04 #@! TO.C,D6*
X92524855Y-22428000D03*
X92524855Y-19228000D03*
X87524855Y-22428000D03*
X87524855Y-19228000D03*
G04 #@! TD*
G04 #@! TO.C,D8*
X110958000Y-22428000D03*
X110958000Y-19228000D03*
X105958000Y-22428000D03*
X105958000Y-19228000D03*
G04 #@! TD*
G04 #@! TO.C,D9*
X41442000Y-28154285D03*
X41442000Y-31354285D03*
X46442000Y-28154285D03*
X46442000Y-31354285D03*
G04 #@! TD*
G04 #@! TO.C,D10*
X55658571Y-31354285D03*
X55658571Y-28154285D03*
X50658571Y-31354285D03*
X50658571Y-28154285D03*
G04 #@! TD*
G04 #@! TO.C,D11*
X59875142Y-28154285D03*
X59875142Y-31354285D03*
X64875142Y-28154285D03*
X64875142Y-31354285D03*
G04 #@! TD*
G04 #@! TO.C,D12*
X74091713Y-31354285D03*
X74091713Y-28154285D03*
X69091713Y-31354285D03*
X69091713Y-28154285D03*
G04 #@! TD*
G04 #@! TO.C,D13*
X78308284Y-28154285D03*
X78308284Y-31354285D03*
X83308284Y-28154285D03*
X83308284Y-31354285D03*
G04 #@! TD*
G04 #@! TO.C,D64*
X110958000Y-84912000D03*
X110958000Y-81712000D03*
X105958000Y-84912000D03*
X105958000Y-81712000D03*
G04 #@! TD*
G04 #@! TO.C,D14*
X87524855Y-28154285D03*
X87524855Y-31354285D03*
X92524855Y-28154285D03*
X92524855Y-31354285D03*
G04 #@! TD*
G04 #@! TO.C,D30*
X92524855Y-49206855D03*
X92524855Y-46006855D03*
X87524855Y-49206855D03*
X87524855Y-46006855D03*
G04 #@! TD*
G04 #@! TO.C,D55*
X101741426Y-75985710D03*
X101741426Y-72785710D03*
X96741426Y-75985710D03*
X96741426Y-72785710D03*
G04 #@! TD*
G04 #@! TO.C,D34*
X55658571Y-58133140D03*
X55658571Y-54933140D03*
X50658571Y-58133140D03*
X50658571Y-54933140D03*
G04 #@! TD*
G04 #@! TO.C,D49*
X46442000Y-75985710D03*
X46442000Y-72785710D03*
X41442000Y-75985710D03*
X41442000Y-72785710D03*
G04 #@! TD*
G04 #@! TO.C,D50*
X50658571Y-72785710D03*
X50658571Y-75985710D03*
X55658571Y-72785710D03*
X55658571Y-75985710D03*
G04 #@! TD*
G04 #@! TO.C,D51*
X64875142Y-75985710D03*
X64875142Y-72785710D03*
X59875142Y-75985710D03*
X59875142Y-72785710D03*
G04 #@! TD*
G04 #@! TO.C,D52*
X69091713Y-72785710D03*
X69091713Y-75985710D03*
X74091713Y-72785710D03*
X74091713Y-75985710D03*
G04 #@! TD*
G04 #@! TO.C,D53*
X83308284Y-75985710D03*
X83308284Y-72785710D03*
X78308284Y-75985710D03*
X78308284Y-72785710D03*
G04 #@! TD*
G04 #@! TO.C,D54*
X87524855Y-72785710D03*
X87524855Y-75985710D03*
X92524855Y-72785710D03*
X92524855Y-75985710D03*
G04 #@! TD*
G04 #@! TO.C,D56*
X110958000Y-75985710D03*
X110958000Y-72785710D03*
X105958000Y-75985710D03*
X105958000Y-72785710D03*
G04 #@! TD*
G04 #@! TO.C,D57*
X46442000Y-84912000D03*
X46442000Y-81712000D03*
X41442000Y-84912000D03*
X41442000Y-81712000D03*
G04 #@! TD*
G04 #@! TO.C,D58*
X50658571Y-81712000D03*
X50658571Y-84912000D03*
X55658571Y-81712000D03*
X55658571Y-84912000D03*
G04 #@! TD*
G04 #@! TO.C,D59*
X64875142Y-84912000D03*
X64875142Y-81712000D03*
X59875142Y-84912000D03*
X59875142Y-81712000D03*
G04 #@! TD*
G04 #@! TO.C,D60*
X69091713Y-81712000D03*
X69091713Y-84912000D03*
X74091713Y-81712000D03*
X74091713Y-84912000D03*
G04 #@! TD*
G04 #@! TO.C,D61*
X83308284Y-84912000D03*
X83308284Y-81712000D03*
X78308284Y-84912000D03*
X78308284Y-81712000D03*
G04 #@! TD*
G04 #@! TO.C,D63*
X96741426Y-81712000D03*
X96741426Y-84912000D03*
X101741426Y-81712000D03*
X101741426Y-84912000D03*
G04 #@! TD*
G04 #@! TO.C,D31*
X101741426Y-49206855D03*
X101741426Y-46006855D03*
X96741426Y-49206855D03*
X96741426Y-46006855D03*
G04 #@! TD*
G04 #@! TO.C,D47*
X101741426Y-67059425D03*
X101741426Y-63859425D03*
X96741426Y-67059425D03*
X96741426Y-63859425D03*
G04 #@! TD*
G04 #@! TO.C,D48*
X110958000Y-67059425D03*
X110958000Y-63859425D03*
X105958000Y-67059425D03*
X105958000Y-63859425D03*
G04 #@! TD*
G04 #@! TO.C,D33*
X41442000Y-54933140D03*
X41442000Y-58133140D03*
X46442000Y-54933140D03*
X46442000Y-58133140D03*
G04 #@! TD*
G04 #@! TO.C,D46*
X92524855Y-67059425D03*
X92524855Y-63859425D03*
X87524855Y-67059425D03*
X87524855Y-63859425D03*
G04 #@! TD*
G04 #@! TO.C,D45*
X78308284Y-63859425D03*
X78308284Y-67059425D03*
X83308284Y-63859425D03*
X83308284Y-67059425D03*
G04 #@! TD*
G04 #@! TO.C,D44*
X74091713Y-67059425D03*
X74091713Y-63859425D03*
X69091713Y-67059425D03*
X69091713Y-63859425D03*
G04 #@! TD*
G04 #@! TO.C,D43*
X59875142Y-63859425D03*
X59875142Y-67059425D03*
X64875142Y-63859425D03*
X64875142Y-67059425D03*
G04 #@! TD*
G04 #@! TO.C,D42*
X55658571Y-67059425D03*
X55658571Y-63859425D03*
X50658571Y-67059425D03*
X50658571Y-63859425D03*
G04 #@! TD*
G04 #@! TO.C,D41*
X41442000Y-63859425D03*
X41442000Y-67059425D03*
X46442000Y-63859425D03*
X46442000Y-67059425D03*
G04 #@! TD*
G04 #@! TO.C,D40*
X110958000Y-58133140D03*
X110958000Y-54933140D03*
X105958000Y-58133140D03*
X105958000Y-54933140D03*
G04 #@! TD*
G04 #@! TO.C,D39*
X96741426Y-54933140D03*
X96741426Y-58133140D03*
X101741426Y-54933140D03*
X101741426Y-58133140D03*
G04 #@! TD*
G04 #@! TO.C,D38*
X92524855Y-58133140D03*
X92524855Y-54933140D03*
X87524855Y-58133140D03*
X87524855Y-54933140D03*
G04 #@! TD*
G04 #@! TO.C,D37*
X78308284Y-54933140D03*
X78308284Y-58133140D03*
X83308284Y-54933140D03*
X83308284Y-58133140D03*
G04 #@! TD*
G04 #@! TO.C,D36*
X74091713Y-58133140D03*
X74091713Y-54933140D03*
X69091713Y-58133140D03*
X69091713Y-54933140D03*
G04 #@! TD*
G04 #@! TO.C,D62*
X87524855Y-81712000D03*
X87524855Y-84912000D03*
X92524855Y-81712000D03*
X92524855Y-84912000D03*
G04 #@! TD*
G04 #@! TO.C,D35*
X64875142Y-58133140D03*
X64875142Y-54933140D03*
X59875142Y-58133140D03*
X59875142Y-54933140D03*
G04 #@! TD*
D16*
G04 #@! TO.C,J2*
X18020760Y-21174571D03*
D17*
X33260760Y-21174571D03*
D16*
X23100760Y-21174571D03*
X28180760Y-21174571D03*
G04 #@! TD*
D18*
G04 #@! TO.C,C5*
X16373328Y-39086869D03*
X18873328Y-39086869D03*
G04 #@! TD*
G04 #@! TO.C,C4*
X18873328Y-36086869D03*
X16373328Y-36086869D03*
G04 #@! TD*
G04 #@! TO.C,C3*
X16373328Y-33086869D03*
X18873328Y-33086869D03*
G04 #@! TD*
G04 #@! TO.C,C2*
X18873328Y-29836869D03*
X16373328Y-29836869D03*
G04 #@! TD*
G04 #@! TO.C,C1*
X16373328Y-26586869D03*
X18873328Y-26586869D03*
G04 #@! TD*
D19*
G04 #@! TO.C,ZD2*
X30860760Y-26924571D03*
X33660760Y-26924571D03*
G04 #@! TD*
G04 #@! TO.C,ZD1*
X22352000Y-35944000D03*
X22352000Y-33144000D03*
G04 #@! TD*
D10*
G04 #@! TO.C,LD_G1*
X29718000Y-37432000D03*
X29718000Y-40132000D03*
G04 #@! TD*
G04 #@! TO.C,R2*
X27178000Y-34624000D03*
X27178000Y-31924000D03*
G04 #@! TD*
G04 #@! TO.C,R1*
X27178000Y-37432000D03*
X27178000Y-40132000D03*
G04 #@! TD*
D20*
G04 #@! TO.C,U1*
X30860760Y-44224571D03*
X30860760Y-46124571D03*
X28160760Y-46124571D03*
X28160760Y-45174571D03*
X28160760Y-44224571D03*
G04 #@! TD*
D21*
G04 #@! TO.C,J1*
X22590760Y-46424571D03*
X20050760Y-46424571D03*
D22*
X17510760Y-46424571D03*
G04 #@! TD*
M02*
