G04 #@! TF.GenerationSoftware,KiCad,Pcbnew,5.0.0-fee4fd1~66~ubuntu18.04.1*
G04 #@! TF.CreationDate,2018-10-07T21:04:36+08:00*
G04 #@! TF.ProjectId,ws2812-stm32-interface,7773323831322D73746D33322D696E74,rev?*
G04 #@! TF.SameCoordinates,Original*
G04 #@! TF.FileFunction,Copper,L2,Bot,Signal*
G04 #@! TF.FilePolarity,Positive*
%FSLAX46Y46*%
G04 Gerber Fmt 4.6, Leading zero omitted, Abs format (unit mm)*
G04 Created by KiCad (PCBNEW 5.0.0-fee4fd1~66~ubuntu18.04.1) date Sun Oct  7 21:04:36 2018*
%MOMM*%
%LPD*%
G01*
G04 APERTURE LIST*
G04 #@! TA.AperFunction,ComponentPad*
%ADD10C,3.000000*%
G04 #@! TD*
G04 #@! TA.AperFunction,ComponentPad*
%ADD11R,3.000000X3.000000*%
G04 #@! TD*
G04 #@! TA.AperFunction,ComponentPad*
%ADD12O,2.540000X1.700000*%
G04 #@! TD*
G04 #@! TA.AperFunction,ComponentPad*
%ADD13R,2.500000X1.700000*%
G04 #@! TD*
G04 #@! TA.AperFunction,ViaPad*
%ADD14C,2.000000*%
G04 #@! TD*
G04 #@! TA.AperFunction,Conductor*
%ADD15C,1.000000*%
G04 #@! TD*
G04 #@! TA.AperFunction,Conductor*
%ADD16C,0.254000*%
G04 #@! TD*
G04 APERTURE END LIST*
D10*
G04 #@! TO.P,J2,4*
G04 #@! TO.N,GND*
X48250000Y-15760000D03*
D11*
G04 #@! TO.P,J2,1*
G04 #@! TO.N,V_EXT_LED*
X48250000Y-31000000D03*
D10*
G04 #@! TO.P,J2,3*
G04 #@! TO.N,/PWM_TO_LED*
X48250000Y-20840000D03*
G04 #@! TO.P,J2,2*
G04 #@! TO.N,VCC*
X48250000Y-25920000D03*
G04 #@! TD*
D12*
G04 #@! TO.P,J1,3*
G04 #@! TO.N,/MCU_LED_PWM*
X23000000Y-20330000D03*
G04 #@! TO.P,J1,2*
G04 #@! TO.N,+5V*
X23000000Y-17790000D03*
D13*
G04 #@! TO.P,J1,1*
G04 #@! TO.N,GND*
X23000000Y-15250000D03*
G04 #@! TD*
D14*
G04 #@! TO.N,+5V*
X29000000Y-20500000D03*
G04 #@! TO.N,GND*
X28250000Y-30250000D03*
G04 #@! TO.N,VCC*
X35500000Y-22750000D03*
G04 #@! TD*
D15*
G04 #@! TO.N,+5V*
X26290000Y-17790000D02*
X29000000Y-20500000D01*
X23000000Y-17790000D02*
X26290000Y-17790000D01*
G04 #@! TO.N,GND*
X29500000Y-15000000D02*
X27000000Y-15000000D01*
X31500000Y-17000000D02*
X29500000Y-15000000D01*
X29750000Y-15250000D02*
X31500000Y-17000000D01*
X23000000Y-15250000D02*
X29750000Y-15250000D01*
G04 #@! TO.N,VCC*
X48250000Y-25920000D02*
X38670000Y-25920000D01*
X38670000Y-25920000D02*
X35500000Y-22750000D01*
G04 #@! TD*
D16*
G04 #@! TO.N,GND*
G36*
X52040000Y-33290000D02*
X20460000Y-33290000D01*
X20460000Y-29500000D01*
X46102560Y-29500000D01*
X46102560Y-32500000D01*
X46151843Y-32747765D01*
X46292191Y-32957809D01*
X46502235Y-33098157D01*
X46750000Y-33147440D01*
X49750000Y-33147440D01*
X49997765Y-33098157D01*
X50207809Y-32957809D01*
X50348157Y-32747765D01*
X50397440Y-32500000D01*
X50397440Y-29500000D01*
X50348157Y-29252235D01*
X50207809Y-29042191D01*
X49997765Y-28901843D01*
X49750000Y-28852560D01*
X46750000Y-28852560D01*
X46502235Y-28901843D01*
X46292191Y-29042191D01*
X46151843Y-29252235D01*
X46102560Y-29500000D01*
X20460000Y-29500000D01*
X20460000Y-22424778D01*
X33865000Y-22424778D01*
X33865000Y-23075222D01*
X34113914Y-23676153D01*
X34573847Y-24136086D01*
X35174778Y-24385000D01*
X35529869Y-24385000D01*
X37788389Y-26643521D01*
X37851711Y-26738289D01*
X38227145Y-26989146D01*
X38670000Y-27077235D01*
X38781783Y-27055000D01*
X46409225Y-27055000D01*
X46440034Y-27129380D01*
X47040620Y-27729966D01*
X47825322Y-28055000D01*
X48674678Y-28055000D01*
X49459380Y-27729966D01*
X50059966Y-27129380D01*
X50385000Y-26344678D01*
X50385000Y-25495322D01*
X50059966Y-24710620D01*
X49459380Y-24110034D01*
X48674678Y-23785000D01*
X47825322Y-23785000D01*
X47040620Y-24110034D01*
X46440034Y-24710620D01*
X46409225Y-24785000D01*
X39140132Y-24785000D01*
X37135000Y-22779869D01*
X37135000Y-22424778D01*
X36886086Y-21823847D01*
X36426153Y-21363914D01*
X35825222Y-21115000D01*
X35174778Y-21115000D01*
X34573847Y-21363914D01*
X34113914Y-21823847D01*
X33865000Y-22424778D01*
X20460000Y-22424778D01*
X20460000Y-17790000D01*
X21065908Y-17790000D01*
X21181161Y-18369418D01*
X21509375Y-18860625D01*
X21807761Y-19060000D01*
X21509375Y-19259375D01*
X21181161Y-19750582D01*
X21065908Y-20330000D01*
X21181161Y-20909418D01*
X21509375Y-21400625D01*
X22000582Y-21728839D01*
X22433744Y-21815000D01*
X23566256Y-21815000D01*
X23999418Y-21728839D01*
X24490625Y-21400625D01*
X24818839Y-20909418D01*
X24934092Y-20330000D01*
X24818839Y-19750582D01*
X24490625Y-19259375D01*
X24192239Y-19060000D01*
X24394281Y-18925000D01*
X25819869Y-18925000D01*
X27365000Y-20470132D01*
X27365000Y-20825222D01*
X27613914Y-21426153D01*
X28073847Y-21886086D01*
X28674778Y-22135000D01*
X29325222Y-22135000D01*
X29926153Y-21886086D01*
X30386086Y-21426153D01*
X30635000Y-20825222D01*
X30635000Y-20415322D01*
X46115000Y-20415322D01*
X46115000Y-21264678D01*
X46440034Y-22049380D01*
X47040620Y-22649966D01*
X47825322Y-22975000D01*
X48674678Y-22975000D01*
X49459380Y-22649966D01*
X50059966Y-22049380D01*
X50385000Y-21264678D01*
X50385000Y-20415322D01*
X50059966Y-19630620D01*
X49459380Y-19030034D01*
X48674678Y-18705000D01*
X47825322Y-18705000D01*
X47040620Y-19030034D01*
X46440034Y-19630620D01*
X46115000Y-20415322D01*
X30635000Y-20415322D01*
X30635000Y-20174778D01*
X30386086Y-19573847D01*
X29926153Y-19113914D01*
X29325222Y-18865000D01*
X28970132Y-18865000D01*
X27379102Y-17273970D01*
X46915635Y-17273970D01*
X47075418Y-17592739D01*
X47866187Y-17902723D01*
X48715387Y-17886497D01*
X49424582Y-17592739D01*
X49584365Y-17273970D01*
X48250000Y-15939605D01*
X46915635Y-17273970D01*
X27379102Y-17273970D01*
X27171613Y-17066482D01*
X27108289Y-16971711D01*
X26732855Y-16720854D01*
X26401783Y-16655000D01*
X26290000Y-16632765D01*
X26178217Y-16655000D01*
X24569446Y-16655000D01*
X24609698Y-16638327D01*
X24788327Y-16459699D01*
X24885000Y-16226310D01*
X24885000Y-15535750D01*
X24726250Y-15377000D01*
X23127000Y-15377000D01*
X23127000Y-15397000D01*
X22873000Y-15397000D01*
X22873000Y-15377000D01*
X21273750Y-15377000D01*
X21115000Y-15535750D01*
X21115000Y-16226310D01*
X21211673Y-16459699D01*
X21390302Y-16638327D01*
X21538686Y-16699790D01*
X21509375Y-16719375D01*
X21181161Y-17210582D01*
X21065908Y-17790000D01*
X20460000Y-17790000D01*
X20460000Y-15376187D01*
X46107277Y-15376187D01*
X46123503Y-16225387D01*
X46417261Y-16934582D01*
X46736030Y-17094365D01*
X48070395Y-15760000D01*
X48429605Y-15760000D01*
X49763970Y-17094365D01*
X50082739Y-16934582D01*
X50392723Y-16143813D01*
X50376497Y-15294613D01*
X50082739Y-14585418D01*
X49763970Y-14425635D01*
X48429605Y-15760000D01*
X48070395Y-15760000D01*
X46736030Y-14425635D01*
X46417261Y-14585418D01*
X46107277Y-15376187D01*
X20460000Y-15376187D01*
X20460000Y-14273690D01*
X21115000Y-14273690D01*
X21115000Y-14964250D01*
X21273750Y-15123000D01*
X22873000Y-15123000D01*
X22873000Y-13923750D01*
X23127000Y-13923750D01*
X23127000Y-15123000D01*
X24726250Y-15123000D01*
X24885000Y-14964250D01*
X24885000Y-14273690D01*
X24873543Y-14246030D01*
X46915635Y-14246030D01*
X48250000Y-15580395D01*
X49584365Y-14246030D01*
X49424582Y-13927261D01*
X48633813Y-13617277D01*
X47784613Y-13633503D01*
X47075418Y-13927261D01*
X46915635Y-14246030D01*
X24873543Y-14246030D01*
X24788327Y-14040301D01*
X24609698Y-13861673D01*
X24376309Y-13765000D01*
X23285750Y-13765000D01*
X23127000Y-13923750D01*
X22873000Y-13923750D01*
X22714250Y-13765000D01*
X21623691Y-13765000D01*
X21390302Y-13861673D01*
X21211673Y-14040301D01*
X21115000Y-14273690D01*
X20460000Y-14273690D01*
X20460000Y-13460000D01*
X52040001Y-13460000D01*
X52040000Y-33290000D01*
X52040000Y-33290000D01*
G37*
X52040000Y-33290000D02*
X20460000Y-33290000D01*
X20460000Y-29500000D01*
X46102560Y-29500000D01*
X46102560Y-32500000D01*
X46151843Y-32747765D01*
X46292191Y-32957809D01*
X46502235Y-33098157D01*
X46750000Y-33147440D01*
X49750000Y-33147440D01*
X49997765Y-33098157D01*
X50207809Y-32957809D01*
X50348157Y-32747765D01*
X50397440Y-32500000D01*
X50397440Y-29500000D01*
X50348157Y-29252235D01*
X50207809Y-29042191D01*
X49997765Y-28901843D01*
X49750000Y-28852560D01*
X46750000Y-28852560D01*
X46502235Y-28901843D01*
X46292191Y-29042191D01*
X46151843Y-29252235D01*
X46102560Y-29500000D01*
X20460000Y-29500000D01*
X20460000Y-22424778D01*
X33865000Y-22424778D01*
X33865000Y-23075222D01*
X34113914Y-23676153D01*
X34573847Y-24136086D01*
X35174778Y-24385000D01*
X35529869Y-24385000D01*
X37788389Y-26643521D01*
X37851711Y-26738289D01*
X38227145Y-26989146D01*
X38670000Y-27077235D01*
X38781783Y-27055000D01*
X46409225Y-27055000D01*
X46440034Y-27129380D01*
X47040620Y-27729966D01*
X47825322Y-28055000D01*
X48674678Y-28055000D01*
X49459380Y-27729966D01*
X50059966Y-27129380D01*
X50385000Y-26344678D01*
X50385000Y-25495322D01*
X50059966Y-24710620D01*
X49459380Y-24110034D01*
X48674678Y-23785000D01*
X47825322Y-23785000D01*
X47040620Y-24110034D01*
X46440034Y-24710620D01*
X46409225Y-24785000D01*
X39140132Y-24785000D01*
X37135000Y-22779869D01*
X37135000Y-22424778D01*
X36886086Y-21823847D01*
X36426153Y-21363914D01*
X35825222Y-21115000D01*
X35174778Y-21115000D01*
X34573847Y-21363914D01*
X34113914Y-21823847D01*
X33865000Y-22424778D01*
X20460000Y-22424778D01*
X20460000Y-17790000D01*
X21065908Y-17790000D01*
X21181161Y-18369418D01*
X21509375Y-18860625D01*
X21807761Y-19060000D01*
X21509375Y-19259375D01*
X21181161Y-19750582D01*
X21065908Y-20330000D01*
X21181161Y-20909418D01*
X21509375Y-21400625D01*
X22000582Y-21728839D01*
X22433744Y-21815000D01*
X23566256Y-21815000D01*
X23999418Y-21728839D01*
X24490625Y-21400625D01*
X24818839Y-20909418D01*
X24934092Y-20330000D01*
X24818839Y-19750582D01*
X24490625Y-19259375D01*
X24192239Y-19060000D01*
X24394281Y-18925000D01*
X25819869Y-18925000D01*
X27365000Y-20470132D01*
X27365000Y-20825222D01*
X27613914Y-21426153D01*
X28073847Y-21886086D01*
X28674778Y-22135000D01*
X29325222Y-22135000D01*
X29926153Y-21886086D01*
X30386086Y-21426153D01*
X30635000Y-20825222D01*
X30635000Y-20415322D01*
X46115000Y-20415322D01*
X46115000Y-21264678D01*
X46440034Y-22049380D01*
X47040620Y-22649966D01*
X47825322Y-22975000D01*
X48674678Y-22975000D01*
X49459380Y-22649966D01*
X50059966Y-22049380D01*
X50385000Y-21264678D01*
X50385000Y-20415322D01*
X50059966Y-19630620D01*
X49459380Y-19030034D01*
X48674678Y-18705000D01*
X47825322Y-18705000D01*
X47040620Y-19030034D01*
X46440034Y-19630620D01*
X46115000Y-20415322D01*
X30635000Y-20415322D01*
X30635000Y-20174778D01*
X30386086Y-19573847D01*
X29926153Y-19113914D01*
X29325222Y-18865000D01*
X28970132Y-18865000D01*
X27379102Y-17273970D01*
X46915635Y-17273970D01*
X47075418Y-17592739D01*
X47866187Y-17902723D01*
X48715387Y-17886497D01*
X49424582Y-17592739D01*
X49584365Y-17273970D01*
X48250000Y-15939605D01*
X46915635Y-17273970D01*
X27379102Y-17273970D01*
X27171613Y-17066482D01*
X27108289Y-16971711D01*
X26732855Y-16720854D01*
X26401783Y-16655000D01*
X26290000Y-16632765D01*
X26178217Y-16655000D01*
X24569446Y-16655000D01*
X24609698Y-16638327D01*
X24788327Y-16459699D01*
X24885000Y-16226310D01*
X24885000Y-15535750D01*
X24726250Y-15377000D01*
X23127000Y-15377000D01*
X23127000Y-15397000D01*
X22873000Y-15397000D01*
X22873000Y-15377000D01*
X21273750Y-15377000D01*
X21115000Y-15535750D01*
X21115000Y-16226310D01*
X21211673Y-16459699D01*
X21390302Y-16638327D01*
X21538686Y-16699790D01*
X21509375Y-16719375D01*
X21181161Y-17210582D01*
X21065908Y-17790000D01*
X20460000Y-17790000D01*
X20460000Y-15376187D01*
X46107277Y-15376187D01*
X46123503Y-16225387D01*
X46417261Y-16934582D01*
X46736030Y-17094365D01*
X48070395Y-15760000D01*
X48429605Y-15760000D01*
X49763970Y-17094365D01*
X50082739Y-16934582D01*
X50392723Y-16143813D01*
X50376497Y-15294613D01*
X50082739Y-14585418D01*
X49763970Y-14425635D01*
X48429605Y-15760000D01*
X48070395Y-15760000D01*
X46736030Y-14425635D01*
X46417261Y-14585418D01*
X46107277Y-15376187D01*
X20460000Y-15376187D01*
X20460000Y-14273690D01*
X21115000Y-14273690D01*
X21115000Y-14964250D01*
X21273750Y-15123000D01*
X22873000Y-15123000D01*
X22873000Y-13923750D01*
X23127000Y-13923750D01*
X23127000Y-15123000D01*
X24726250Y-15123000D01*
X24885000Y-14964250D01*
X24885000Y-14273690D01*
X24873543Y-14246030D01*
X46915635Y-14246030D01*
X48250000Y-15580395D01*
X49584365Y-14246030D01*
X49424582Y-13927261D01*
X48633813Y-13617277D01*
X47784613Y-13633503D01*
X47075418Y-13927261D01*
X46915635Y-14246030D01*
X24873543Y-14246030D01*
X24788327Y-14040301D01*
X24609698Y-13861673D01*
X24376309Y-13765000D01*
X23285750Y-13765000D01*
X23127000Y-13923750D01*
X22873000Y-13923750D01*
X22714250Y-13765000D01*
X21623691Y-13765000D01*
X21390302Y-13861673D01*
X21211673Y-14040301D01*
X21115000Y-14273690D01*
X20460000Y-14273690D01*
X20460000Y-13460000D01*
X52040001Y-13460000D01*
X52040000Y-33290000D01*
G04 #@! TD*
M02*
