G04 #@! TF.GenerationSoftware,KiCad,Pcbnew,5.0.0-fee4fd1~66~ubuntu18.04.1*
G04 #@! TF.CreationDate,2018-10-07T21:04:36+08:00*
G04 #@! TF.ProjectId,ws2812-stm32-interface,7773323831322D73746D33322D696E74,rev?*
G04 #@! TF.SameCoordinates,Original*
G04 #@! TF.FileFunction,Copper,L1,Top,Signal*
G04 #@! TF.FilePolarity,Positive*
%FSLAX46Y46*%
G04 Gerber Fmt 4.6, Leading zero omitted, Abs format (unit mm)*
G04 Created by KiCad (PCBNEW 5.0.0-fee4fd1~66~ubuntu18.04.1) date Sun Oct  7 21:04:36 2018*
%MOMM*%
%LPD*%
G01*
G04 APERTURE LIST*
G04 #@! TA.AperFunction,ComponentPad*
%ADD10C,3.000000*%
G04 #@! TD*
G04 #@! TA.AperFunction,ComponentPad*
%ADD11R,3.000000X3.000000*%
G04 #@! TD*
G04 #@! TA.AperFunction,SMDPad,CuDef*
%ADD12R,1.250000X1.500000*%
G04 #@! TD*
G04 #@! TA.AperFunction,SMDPad,CuDef*
%ADD13R,1.100000X1.100000*%
G04 #@! TD*
G04 #@! TA.AperFunction,SMDPad,CuDef*
%ADD14R,1.300000X1.500000*%
G04 #@! TD*
G04 #@! TA.AperFunction,SMDPad,CuDef*
%ADD15R,0.650000X1.560000*%
G04 #@! TD*
G04 #@! TA.AperFunction,ComponentPad*
%ADD16O,2.540000X1.700000*%
G04 #@! TD*
G04 #@! TA.AperFunction,ComponentPad*
%ADD17R,2.500000X1.700000*%
G04 #@! TD*
G04 #@! TA.AperFunction,ViaPad*
%ADD18C,2.000000*%
G04 #@! TD*
G04 #@! TA.AperFunction,Conductor*
%ADD19C,1.000000*%
G04 #@! TD*
G04 #@! TA.AperFunction,Conductor*
%ADD20C,0.500000*%
G04 #@! TD*
G04 #@! TA.AperFunction,Conductor*
%ADD21C,0.400000*%
G04 #@! TD*
G04 #@! TA.AperFunction,Conductor*
%ADD22C,0.254000*%
G04 #@! TD*
G04 APERTURE END LIST*
D10*
G04 #@! TO.P,J2,4*
G04 #@! TO.N,GND*
X48250000Y-15760000D03*
D11*
G04 #@! TO.P,J2,1*
G04 #@! TO.N,V_EXT_LED*
X48250000Y-31000000D03*
D10*
G04 #@! TO.P,J2,3*
G04 #@! TO.N,/PWM_TO_LED*
X48250000Y-20840000D03*
G04 #@! TO.P,J2,2*
G04 #@! TO.N,VCC*
X48250000Y-25920000D03*
G04 #@! TD*
D12*
G04 #@! TO.P,C5,2*
G04 #@! TO.N,GND*
X30337702Y-14112568D03*
G04 #@! TO.P,C5,1*
G04 #@! TO.N,VCC*
X30337702Y-16612568D03*
G04 #@! TD*
G04 #@! TO.P,C4,1*
G04 #@! TO.N,VCC*
X33337702Y-16612568D03*
G04 #@! TO.P,C4,2*
G04 #@! TO.N,GND*
X33337702Y-14112568D03*
G04 #@! TD*
G04 #@! TO.P,C3,2*
G04 #@! TO.N,GND*
X36337702Y-14112568D03*
G04 #@! TO.P,C3,1*
G04 #@! TO.N,VCC*
X36337702Y-16612568D03*
G04 #@! TD*
G04 #@! TO.P,C2,1*
G04 #@! TO.N,VCC*
X39587702Y-16612568D03*
G04 #@! TO.P,C2,2*
G04 #@! TO.N,GND*
X39587702Y-14112568D03*
G04 #@! TD*
G04 #@! TO.P,C1,2*
G04 #@! TO.N,GND*
X42837702Y-14112568D03*
G04 #@! TO.P,C1,1*
G04 #@! TO.N,VCC*
X42837702Y-16612568D03*
G04 #@! TD*
D13*
G04 #@! TO.P,D2,1*
G04 #@! TO.N,VCC*
X42500000Y-28600000D03*
G04 #@! TO.P,D2,2*
G04 #@! TO.N,V_EXT_LED*
X42500000Y-31400000D03*
G04 #@! TD*
G04 #@! TO.P,D1,2*
G04 #@! TO.N,+5V*
X31200000Y-19500000D03*
G04 #@! TO.P,D1,1*
G04 #@! TO.N,VCC*
X34000000Y-19500000D03*
G04 #@! TD*
D14*
G04 #@! TO.P,D4,1*
G04 #@! TO.N,GND*
X35000000Y-25250000D03*
G04 #@! TO.P,D4,2*
G04 #@! TO.N,Net-(D4-Pad2)*
X35000000Y-27950000D03*
G04 #@! TD*
G04 #@! TO.P,D3,2*
G04 #@! TO.N,Net-(D3-Pad2)*
X32250000Y-28000000D03*
G04 #@! TO.P,D3,1*
G04 #@! TO.N,GND*
X32250000Y-25300000D03*
G04 #@! TD*
G04 #@! TO.P,R2,1*
G04 #@! TO.N,VCC*
X37750000Y-25250000D03*
G04 #@! TO.P,R2,2*
G04 #@! TO.N,Net-(D4-Pad2)*
X37750000Y-27950000D03*
G04 #@! TD*
G04 #@! TO.P,R1,2*
G04 #@! TO.N,Net-(D3-Pad2)*
X29750000Y-28000000D03*
G04 #@! TO.P,R1,1*
G04 #@! TO.N,+5V*
X29750000Y-25300000D03*
G04 #@! TD*
D15*
G04 #@! TO.P,U1,5*
G04 #@! TO.N,VCC*
X25200000Y-28600000D03*
G04 #@! TO.P,U1,4*
G04 #@! TO.N,/PWM_TO_LED*
X23300000Y-28600000D03*
G04 #@! TO.P,U1,3*
G04 #@! TO.N,GND*
X23300000Y-25900000D03*
G04 #@! TO.P,U1,2*
G04 #@! TO.N,/MCU_LED_PWM*
X24250000Y-25900000D03*
G04 #@! TO.P,U1,1*
G04 #@! TO.N,GND*
X25200000Y-25900000D03*
G04 #@! TD*
D16*
G04 #@! TO.P,J1,3*
G04 #@! TO.N,/MCU_LED_PWM*
X23000000Y-20330000D03*
G04 #@! TO.P,J1,2*
G04 #@! TO.N,+5V*
X23000000Y-17790000D03*
D17*
G04 #@! TO.P,J1,1*
G04 #@! TO.N,GND*
X23000000Y-15250000D03*
G04 #@! TD*
D18*
G04 #@! TO.N,+5V*
X29000000Y-20500000D03*
G04 #@! TO.N,GND*
X28250000Y-30250000D03*
G04 #@! TO.N,VCC*
X35500000Y-22750000D03*
G04 #@! TD*
D19*
G04 #@! TO.N,+5V*
X30200000Y-20500000D02*
X31200000Y-19500000D01*
X29000000Y-20500000D02*
X30200000Y-20500000D01*
G04 #@! TO.N,GND*
X30337702Y-14112568D02*
X33337702Y-14112568D01*
X33337702Y-14112568D02*
X36337702Y-14112568D01*
X36337702Y-14112568D02*
X39587702Y-14112568D01*
X39587702Y-14112568D02*
X42837702Y-14112568D01*
X46602568Y-14112568D02*
X48250000Y-15760000D01*
X42837702Y-14112568D02*
X46602568Y-14112568D01*
X30337702Y-14112568D02*
X27887432Y-14112568D01*
X34950000Y-25300000D02*
X35000000Y-25250000D01*
X32250000Y-25300000D02*
X34950000Y-25300000D01*
D20*
G04 #@! TO.N,/MCU_LED_PWM*
X23124999Y-20500000D02*
X23224999Y-20400000D01*
X23000000Y-20330000D02*
X23000000Y-21500000D01*
X23000000Y-20330000D02*
X23000000Y-21750000D01*
X24250000Y-23000000D02*
X24250000Y-25900000D01*
X23000000Y-21750000D02*
X24250000Y-23000000D01*
D19*
G04 #@! TO.N,+5V*
X29750000Y-23500000D02*
X29000000Y-22750000D01*
X29750000Y-25300000D02*
X29750000Y-23500000D01*
X29000000Y-20500000D02*
X29000000Y-22750000D01*
G04 #@! TO.N,GND*
X26750000Y-15250000D02*
X27887432Y-14112568D01*
X23000000Y-15250000D02*
X21500000Y-15250000D01*
X21500000Y-15250000D02*
X20750000Y-16000000D01*
X20750000Y-16000000D02*
X20750000Y-22750000D01*
D20*
X23224999Y-25224999D02*
X23224999Y-25900000D01*
D19*
X20750000Y-22750000D02*
X23224999Y-25224999D01*
X25500000Y-15250000D02*
X25500000Y-25675001D01*
X25500000Y-15250000D02*
X26750000Y-15250000D01*
D20*
X25500000Y-25675001D02*
X25275001Y-25900000D01*
D19*
X23000000Y-15250000D02*
X25500000Y-15250000D01*
G04 #@! TO.N,VCC*
X30337702Y-16612568D02*
X33337702Y-16612568D01*
X33337702Y-16612568D02*
X36337702Y-16612568D01*
X36337702Y-16612568D02*
X39587702Y-16612568D01*
X39587702Y-16612568D02*
X42837702Y-16612568D01*
X34000000Y-17274866D02*
X33337702Y-16612568D01*
X34000000Y-19500000D02*
X34000000Y-17274866D01*
X34000000Y-21250000D02*
X34000000Y-19500000D01*
X35500000Y-22750000D02*
X34000000Y-21250000D01*
X37750000Y-25250000D02*
X37750000Y-23500000D01*
X37000000Y-22750000D02*
X35500000Y-22750000D01*
X37750000Y-23500000D02*
X37000000Y-22750000D01*
X43430000Y-25920000D02*
X42500000Y-26850000D01*
X48250000Y-25920000D02*
X43430000Y-25920000D01*
X42500000Y-26850000D02*
X42500000Y-28449990D01*
X29887432Y-16612568D02*
X30337702Y-16612568D01*
X27500000Y-22500000D02*
X27000000Y-22000000D01*
X27000000Y-22000000D02*
X27000000Y-19500000D01*
X27000000Y-19500000D02*
X29887432Y-16612568D01*
X25200000Y-28600000D02*
X26900000Y-28600000D01*
X26900000Y-28600000D02*
X27500000Y-28000000D01*
X27500000Y-28000000D02*
X27500000Y-25250000D01*
X27500000Y-25250000D02*
X27500000Y-22500000D01*
D20*
G04 #@! TO.N,/PWM_TO_LED*
X23300000Y-31800000D02*
X23300000Y-28600000D01*
X42410000Y-20840000D02*
X40250000Y-23000000D01*
X40250000Y-23000000D02*
X40250000Y-31000000D01*
X48250000Y-20840000D02*
X42410000Y-20840000D01*
X40250000Y-31000000D02*
X39000000Y-32250000D01*
X39000000Y-32250000D02*
X23750000Y-32250000D01*
X23750000Y-32250000D02*
X23300000Y-31800000D01*
D21*
G04 #@! TO.N,Net-(D3-Pad2)*
X29750000Y-28000000D02*
X32250000Y-28000000D01*
G04 #@! TO.N,Net-(D4-Pad2)*
X35000000Y-27950000D02*
X37750000Y-27950000D01*
D19*
G04 #@! TO.N,V_EXT_LED*
X48250000Y-31000000D02*
X45250000Y-31000000D01*
X44850000Y-31400000D02*
X42500000Y-31400000D01*
X45250000Y-31000000D02*
X44850000Y-31400000D01*
G04 #@! TD*
D22*
G04 #@! TO.N,GND*
G36*
X29077702Y-13826818D02*
X29236452Y-13985568D01*
X30210702Y-13985568D01*
X30210702Y-13965568D01*
X30464702Y-13965568D01*
X30464702Y-13985568D01*
X31438952Y-13985568D01*
X31597702Y-13826818D01*
X31597702Y-13460000D01*
X32077702Y-13460000D01*
X32077702Y-13826818D01*
X32236452Y-13985568D01*
X33210702Y-13985568D01*
X33210702Y-13965568D01*
X33464702Y-13965568D01*
X33464702Y-13985568D01*
X34438952Y-13985568D01*
X34597702Y-13826818D01*
X34597702Y-13460000D01*
X35077702Y-13460000D01*
X35077702Y-13826818D01*
X35236452Y-13985568D01*
X36210702Y-13985568D01*
X36210702Y-13965568D01*
X36464702Y-13965568D01*
X36464702Y-13985568D01*
X37438952Y-13985568D01*
X37597702Y-13826818D01*
X37597702Y-13460000D01*
X38327702Y-13460000D01*
X38327702Y-13826818D01*
X38486452Y-13985568D01*
X39460702Y-13985568D01*
X39460702Y-13965568D01*
X39714702Y-13965568D01*
X39714702Y-13985568D01*
X40688952Y-13985568D01*
X40847702Y-13826818D01*
X40847702Y-13460000D01*
X41577702Y-13460000D01*
X41577702Y-13826818D01*
X41736452Y-13985568D01*
X42710702Y-13985568D01*
X42710702Y-13965568D01*
X42964702Y-13965568D01*
X42964702Y-13985568D01*
X43938952Y-13985568D01*
X44097702Y-13826818D01*
X44097702Y-13460000D01*
X52040001Y-13460000D01*
X52040000Y-33290000D01*
X20460000Y-33290000D01*
X20460000Y-24993691D01*
X22340000Y-24993691D01*
X22340000Y-25614250D01*
X22498750Y-25773000D01*
X23173000Y-25773000D01*
X23173000Y-24643750D01*
X23014250Y-24485000D01*
X22848690Y-24485000D01*
X22615301Y-24581673D01*
X22436673Y-24760302D01*
X22340000Y-24993691D01*
X20460000Y-24993691D01*
X20460000Y-17790000D01*
X21065908Y-17790000D01*
X21181161Y-18369418D01*
X21509375Y-18860625D01*
X21807761Y-19060000D01*
X21509375Y-19259375D01*
X21181161Y-19750582D01*
X21065908Y-20330000D01*
X21181161Y-20909418D01*
X21509375Y-21400625D01*
X22000582Y-21728839D01*
X22098017Y-21748220D01*
X22097663Y-21750000D01*
X22166348Y-22095309D01*
X22312576Y-22314154D01*
X22312578Y-22314156D01*
X22361952Y-22388049D01*
X22435845Y-22437423D01*
X23365000Y-23366579D01*
X23365001Y-24815129D01*
X23326843Y-24872235D01*
X23277560Y-25120000D01*
X23277560Y-26047000D01*
X23173000Y-26047000D01*
X23173000Y-26027000D01*
X22498750Y-26027000D01*
X22340000Y-26185750D01*
X22340000Y-26806309D01*
X22436673Y-27039698D01*
X22615301Y-27218327D01*
X22687648Y-27248294D01*
X22517191Y-27362191D01*
X22376843Y-27572235D01*
X22327560Y-27820000D01*
X22327560Y-29380000D01*
X22376843Y-29627765D01*
X22415001Y-29684872D01*
X22415000Y-31712839D01*
X22397663Y-31800000D01*
X22415000Y-31887161D01*
X22415000Y-31887164D01*
X22466348Y-32145309D01*
X22661951Y-32438049D01*
X22735847Y-32487425D01*
X23062575Y-32814153D01*
X23111951Y-32888049D01*
X23404690Y-33083652D01*
X23662835Y-33135000D01*
X23662839Y-33135000D01*
X23749999Y-33152337D01*
X23837159Y-33135000D01*
X38912839Y-33135000D01*
X39000000Y-33152337D01*
X39087161Y-33135000D01*
X39087165Y-33135000D01*
X39345310Y-33083652D01*
X39638049Y-32888049D01*
X39687425Y-32814153D01*
X40814156Y-31687423D01*
X40888049Y-31638049D01*
X41070496Y-31365000D01*
X41083652Y-31345310D01*
X41129945Y-31112576D01*
X41135000Y-31087165D01*
X41135000Y-31087161D01*
X41152337Y-31000000D01*
X41135000Y-30912839D01*
X41135000Y-30850000D01*
X41302560Y-30850000D01*
X41302560Y-31950000D01*
X41351843Y-32197765D01*
X41492191Y-32407809D01*
X41702235Y-32548157D01*
X41950000Y-32597440D01*
X43050000Y-32597440D01*
X43297765Y-32548157D01*
X43317456Y-32535000D01*
X44738217Y-32535000D01*
X44850000Y-32557235D01*
X44961783Y-32535000D01*
X45292855Y-32469146D01*
X45668289Y-32218289D01*
X45723941Y-32135000D01*
X46102560Y-32135000D01*
X46102560Y-32500000D01*
X46151843Y-32747765D01*
X46292191Y-32957809D01*
X46502235Y-33098157D01*
X46750000Y-33147440D01*
X49750000Y-33147440D01*
X49997765Y-33098157D01*
X50207809Y-32957809D01*
X50348157Y-32747765D01*
X50397440Y-32500000D01*
X50397440Y-29500000D01*
X50348157Y-29252235D01*
X50207809Y-29042191D01*
X49997765Y-28901843D01*
X49750000Y-28852560D01*
X46750000Y-28852560D01*
X46502235Y-28901843D01*
X46292191Y-29042191D01*
X46151843Y-29252235D01*
X46102560Y-29500000D01*
X46102560Y-29865000D01*
X45361781Y-29865000D01*
X45249999Y-29842765D01*
X45138217Y-29865000D01*
X44807145Y-29930854D01*
X44431711Y-30181711D01*
X44376059Y-30265000D01*
X43317456Y-30265000D01*
X43297765Y-30251843D01*
X43050000Y-30202560D01*
X41950000Y-30202560D01*
X41702235Y-30251843D01*
X41492191Y-30392191D01*
X41351843Y-30602235D01*
X41302560Y-30850000D01*
X41135000Y-30850000D01*
X41135000Y-28050000D01*
X41302560Y-28050000D01*
X41302560Y-29150000D01*
X41351843Y-29397765D01*
X41492191Y-29607809D01*
X41702235Y-29748157D01*
X41950000Y-29797440D01*
X43050000Y-29797440D01*
X43297765Y-29748157D01*
X43507809Y-29607809D01*
X43648157Y-29397765D01*
X43697440Y-29150000D01*
X43697440Y-28050000D01*
X43648157Y-27802235D01*
X43635000Y-27782544D01*
X43635000Y-27320131D01*
X43900132Y-27055000D01*
X46409225Y-27055000D01*
X46440034Y-27129380D01*
X47040620Y-27729966D01*
X47825322Y-28055000D01*
X48674678Y-28055000D01*
X49459380Y-27729966D01*
X50059966Y-27129380D01*
X50385000Y-26344678D01*
X50385000Y-25495322D01*
X50059966Y-24710620D01*
X49459380Y-24110034D01*
X48674678Y-23785000D01*
X47825322Y-23785000D01*
X47040620Y-24110034D01*
X46440034Y-24710620D01*
X46409225Y-24785000D01*
X43541783Y-24785000D01*
X43430000Y-24762765D01*
X43318217Y-24785000D01*
X42987145Y-24850854D01*
X42611711Y-25101711D01*
X42548389Y-25196479D01*
X41776481Y-25968387D01*
X41681711Y-26031711D01*
X41503940Y-26297765D01*
X41430854Y-26407146D01*
X41342765Y-26850000D01*
X41365000Y-26961783D01*
X41365000Y-27782544D01*
X41351843Y-27802235D01*
X41302560Y-28050000D01*
X41135000Y-28050000D01*
X41135000Y-23366578D01*
X42776579Y-21725000D01*
X46305671Y-21725000D01*
X46440034Y-22049380D01*
X47040620Y-22649966D01*
X47825322Y-22975000D01*
X48674678Y-22975000D01*
X49459380Y-22649966D01*
X50059966Y-22049380D01*
X50385000Y-21264678D01*
X50385000Y-20415322D01*
X50059966Y-19630620D01*
X49459380Y-19030034D01*
X48674678Y-18705000D01*
X47825322Y-18705000D01*
X47040620Y-19030034D01*
X46440034Y-19630620D01*
X46305671Y-19955000D01*
X42497159Y-19955000D01*
X42409999Y-19937663D01*
X42322839Y-19955000D01*
X42322835Y-19955000D01*
X42064690Y-20006348D01*
X42064688Y-20006349D01*
X42064689Y-20006349D01*
X41845845Y-20152576D01*
X41845844Y-20152577D01*
X41771951Y-20201951D01*
X41722577Y-20275844D01*
X39685847Y-22312575D01*
X39611951Y-22361951D01*
X39416348Y-22654691D01*
X39365000Y-22912836D01*
X39365000Y-22912839D01*
X39347663Y-23000000D01*
X39365000Y-23087161D01*
X39365001Y-30633420D01*
X38633422Y-31365000D01*
X24185000Y-31365000D01*
X24185000Y-29684871D01*
X24223157Y-29627765D01*
X24250000Y-29492815D01*
X24276843Y-29627765D01*
X24417191Y-29837809D01*
X24627235Y-29978157D01*
X24875000Y-30027440D01*
X25525000Y-30027440D01*
X25772765Y-29978157D01*
X25982809Y-29837809D01*
X26051504Y-29735000D01*
X26788217Y-29735000D01*
X26900000Y-29757235D01*
X27011783Y-29735000D01*
X27342855Y-29669146D01*
X27718289Y-29418289D01*
X27781613Y-29323518D01*
X28223519Y-28881612D01*
X28318289Y-28818289D01*
X28452560Y-28617338D01*
X28452560Y-28750000D01*
X28501843Y-28997765D01*
X28642191Y-29207809D01*
X28852235Y-29348157D01*
X29100000Y-29397440D01*
X30400000Y-29397440D01*
X30647765Y-29348157D01*
X30857809Y-29207809D01*
X30998157Y-28997765D01*
X31000000Y-28988500D01*
X31001843Y-28997765D01*
X31142191Y-29207809D01*
X31352235Y-29348157D01*
X31600000Y-29397440D01*
X32900000Y-29397440D01*
X33147765Y-29348157D01*
X33357809Y-29207809D01*
X33498157Y-28997765D01*
X33547440Y-28750000D01*
X33547440Y-27250000D01*
X33498157Y-27002235D01*
X33357809Y-26792191D01*
X33147765Y-26651843D01*
X33119791Y-26646279D01*
X33259699Y-26588327D01*
X33438327Y-26409698D01*
X33535000Y-26176309D01*
X33535000Y-25585750D01*
X33376250Y-25427000D01*
X32377000Y-25427000D01*
X32377000Y-25447000D01*
X32123000Y-25447000D01*
X32123000Y-25427000D01*
X32103000Y-25427000D01*
X32103000Y-25173000D01*
X32123000Y-25173000D01*
X32123000Y-24073750D01*
X32377000Y-24073750D01*
X32377000Y-25173000D01*
X33376250Y-25173000D01*
X33535000Y-25014250D01*
X33535000Y-24423691D01*
X33438327Y-24190302D01*
X33259699Y-24011673D01*
X33026310Y-23915000D01*
X32535750Y-23915000D01*
X32377000Y-24073750D01*
X32123000Y-24073750D01*
X31964250Y-23915000D01*
X31473690Y-23915000D01*
X31240301Y-24011673D01*
X31061673Y-24190302D01*
X31003721Y-24330209D01*
X30998157Y-24302235D01*
X30885000Y-24132885D01*
X30885000Y-23611782D01*
X30907235Y-23499999D01*
X30819146Y-23057145D01*
X30742779Y-22942854D01*
X30568289Y-22681711D01*
X30473521Y-22618389D01*
X30135000Y-22279869D01*
X30135000Y-21677239D01*
X30162469Y-21649770D01*
X30200000Y-21657235D01*
X30311783Y-21635000D01*
X30642855Y-21569146D01*
X31018289Y-21318289D01*
X31081612Y-21223519D01*
X31607692Y-20697440D01*
X31750000Y-20697440D01*
X31997765Y-20648157D01*
X32207809Y-20507809D01*
X32348157Y-20297765D01*
X32397440Y-20050000D01*
X32397440Y-18950000D01*
X32348157Y-18702235D01*
X32207809Y-18492191D01*
X31997765Y-18351843D01*
X31750000Y-18302560D01*
X30650000Y-18302560D01*
X30402235Y-18351843D01*
X30192191Y-18492191D01*
X30051843Y-18702235D01*
X30002560Y-18950000D01*
X30002560Y-19092308D01*
X29953553Y-19141314D01*
X29926153Y-19113914D01*
X29325222Y-18865000D01*
X29240132Y-18865000D01*
X30095125Y-18010008D01*
X30962702Y-18010008D01*
X31210467Y-17960725D01*
X31420511Y-17820377D01*
X31469161Y-17747568D01*
X32206243Y-17747568D01*
X32254893Y-17820377D01*
X32464937Y-17960725D01*
X32712702Y-18010008D01*
X32865001Y-18010008D01*
X32865000Y-18682544D01*
X32851843Y-18702235D01*
X32802560Y-18950000D01*
X32802560Y-20050000D01*
X32851843Y-20297765D01*
X32865000Y-20317456D01*
X32865000Y-21138217D01*
X32842765Y-21250000D01*
X32928467Y-21680854D01*
X32930854Y-21692854D01*
X33181711Y-22068289D01*
X33276482Y-22131613D01*
X33865000Y-22720131D01*
X33865000Y-23075222D01*
X34113914Y-23676153D01*
X34302761Y-23865000D01*
X34223690Y-23865000D01*
X33990301Y-23961673D01*
X33811673Y-24140302D01*
X33715000Y-24373691D01*
X33715000Y-24964250D01*
X33873750Y-25123000D01*
X34873000Y-25123000D01*
X34873000Y-25103000D01*
X35127000Y-25103000D01*
X35127000Y-25123000D01*
X36126250Y-25123000D01*
X36285000Y-24964250D01*
X36285000Y-24373691D01*
X36221665Y-24220788D01*
X36426153Y-24136086D01*
X36603554Y-23958685D01*
X36615000Y-23970132D01*
X36615000Y-24082885D01*
X36501843Y-24252235D01*
X36452560Y-24500000D01*
X36452560Y-26000000D01*
X36501843Y-26247765D01*
X36642191Y-26457809D01*
X36852235Y-26598157D01*
X36861500Y-26600000D01*
X36852235Y-26601843D01*
X36642191Y-26742191D01*
X36501843Y-26952235D01*
X36469467Y-27115000D01*
X36280533Y-27115000D01*
X36248157Y-26952235D01*
X36107809Y-26742191D01*
X35897765Y-26601843D01*
X35869791Y-26596279D01*
X36009699Y-26538327D01*
X36188327Y-26359698D01*
X36285000Y-26126309D01*
X36285000Y-25535750D01*
X36126250Y-25377000D01*
X35127000Y-25377000D01*
X35127000Y-25397000D01*
X34873000Y-25397000D01*
X34873000Y-25377000D01*
X33873750Y-25377000D01*
X33715000Y-25535750D01*
X33715000Y-26126309D01*
X33811673Y-26359698D01*
X33990301Y-26538327D01*
X34130209Y-26596279D01*
X34102235Y-26601843D01*
X33892191Y-26742191D01*
X33751843Y-26952235D01*
X33702560Y-27200000D01*
X33702560Y-28700000D01*
X33751843Y-28947765D01*
X33892191Y-29157809D01*
X34102235Y-29298157D01*
X34350000Y-29347440D01*
X35650000Y-29347440D01*
X35897765Y-29298157D01*
X36107809Y-29157809D01*
X36248157Y-28947765D01*
X36280533Y-28785000D01*
X36469467Y-28785000D01*
X36501843Y-28947765D01*
X36642191Y-29157809D01*
X36852235Y-29298157D01*
X37100000Y-29347440D01*
X38400000Y-29347440D01*
X38647765Y-29298157D01*
X38857809Y-29157809D01*
X38998157Y-28947765D01*
X39047440Y-28700000D01*
X39047440Y-27200000D01*
X38998157Y-26952235D01*
X38857809Y-26742191D01*
X38647765Y-26601843D01*
X38638500Y-26600000D01*
X38647765Y-26598157D01*
X38857809Y-26457809D01*
X38998157Y-26247765D01*
X39047440Y-26000000D01*
X39047440Y-24500000D01*
X38998157Y-24252235D01*
X38885000Y-24082885D01*
X38885000Y-23611782D01*
X38907235Y-23499999D01*
X38819146Y-23057145D01*
X38742779Y-22942854D01*
X38568289Y-22681711D01*
X38473521Y-22618389D01*
X37881613Y-22026481D01*
X37818289Y-21931711D01*
X37442855Y-21680854D01*
X37111783Y-21615000D01*
X37000000Y-21592765D01*
X36888217Y-21615000D01*
X36677239Y-21615000D01*
X36426153Y-21363914D01*
X35825222Y-21115000D01*
X35470131Y-21115000D01*
X35135000Y-20779869D01*
X35135000Y-20317456D01*
X35148157Y-20297765D01*
X35197440Y-20050000D01*
X35197440Y-18950000D01*
X35148157Y-18702235D01*
X35135000Y-18682544D01*
X35135000Y-17747568D01*
X35206243Y-17747568D01*
X35254893Y-17820377D01*
X35464937Y-17960725D01*
X35712702Y-18010008D01*
X36962702Y-18010008D01*
X37210467Y-17960725D01*
X37420511Y-17820377D01*
X37469161Y-17747568D01*
X38456243Y-17747568D01*
X38504893Y-17820377D01*
X38714937Y-17960725D01*
X38962702Y-18010008D01*
X40212702Y-18010008D01*
X40460467Y-17960725D01*
X40670511Y-17820377D01*
X40719161Y-17747568D01*
X41706243Y-17747568D01*
X41754893Y-17820377D01*
X41964937Y-17960725D01*
X42212702Y-18010008D01*
X43462702Y-18010008D01*
X43710467Y-17960725D01*
X43920511Y-17820377D01*
X44060859Y-17610333D01*
X44110142Y-17362568D01*
X44110142Y-17273970D01*
X46915635Y-17273970D01*
X47075418Y-17592739D01*
X47866187Y-17902723D01*
X48715387Y-17886497D01*
X49424582Y-17592739D01*
X49584365Y-17273970D01*
X48250000Y-15939605D01*
X46915635Y-17273970D01*
X44110142Y-17273970D01*
X44110142Y-15862568D01*
X44060859Y-15614803D01*
X43920511Y-15404759D01*
X43877750Y-15376187D01*
X46107277Y-15376187D01*
X46123503Y-16225387D01*
X46417261Y-16934582D01*
X46736030Y-17094365D01*
X48070395Y-15760000D01*
X48429605Y-15760000D01*
X49763970Y-17094365D01*
X50082739Y-16934582D01*
X50392723Y-16143813D01*
X50376497Y-15294613D01*
X50082739Y-14585418D01*
X49763970Y-14425635D01*
X48429605Y-15760000D01*
X48070395Y-15760000D01*
X46736030Y-14425635D01*
X46417261Y-14585418D01*
X46107277Y-15376187D01*
X43877750Y-15376187D01*
X43859382Y-15363914D01*
X44001029Y-15222266D01*
X44097702Y-14988877D01*
X44097702Y-14398318D01*
X43945414Y-14246030D01*
X46915635Y-14246030D01*
X48250000Y-15580395D01*
X49584365Y-14246030D01*
X49424582Y-13927261D01*
X48633813Y-13617277D01*
X47784613Y-13633503D01*
X47075418Y-13927261D01*
X46915635Y-14246030D01*
X43945414Y-14246030D01*
X43938952Y-14239568D01*
X42964702Y-14239568D01*
X42964702Y-14259568D01*
X42710702Y-14259568D01*
X42710702Y-14239568D01*
X41736452Y-14239568D01*
X41577702Y-14398318D01*
X41577702Y-14988877D01*
X41674375Y-15222266D01*
X41816022Y-15363914D01*
X41754893Y-15404759D01*
X41706243Y-15477568D01*
X40719161Y-15477568D01*
X40670511Y-15404759D01*
X40609382Y-15363914D01*
X40751029Y-15222266D01*
X40847702Y-14988877D01*
X40847702Y-14398318D01*
X40688952Y-14239568D01*
X39714702Y-14239568D01*
X39714702Y-14259568D01*
X39460702Y-14259568D01*
X39460702Y-14239568D01*
X38486452Y-14239568D01*
X38327702Y-14398318D01*
X38327702Y-14988877D01*
X38424375Y-15222266D01*
X38566022Y-15363914D01*
X38504893Y-15404759D01*
X38456243Y-15477568D01*
X37469161Y-15477568D01*
X37420511Y-15404759D01*
X37359382Y-15363914D01*
X37501029Y-15222266D01*
X37597702Y-14988877D01*
X37597702Y-14398318D01*
X37438952Y-14239568D01*
X36464702Y-14239568D01*
X36464702Y-14259568D01*
X36210702Y-14259568D01*
X36210702Y-14239568D01*
X35236452Y-14239568D01*
X35077702Y-14398318D01*
X35077702Y-14988877D01*
X35174375Y-15222266D01*
X35316022Y-15363914D01*
X35254893Y-15404759D01*
X35206243Y-15477568D01*
X34469161Y-15477568D01*
X34420511Y-15404759D01*
X34359382Y-15363914D01*
X34501029Y-15222266D01*
X34597702Y-14988877D01*
X34597702Y-14398318D01*
X34438952Y-14239568D01*
X33464702Y-14239568D01*
X33464702Y-14259568D01*
X33210702Y-14259568D01*
X33210702Y-14239568D01*
X32236452Y-14239568D01*
X32077702Y-14398318D01*
X32077702Y-14988877D01*
X32174375Y-15222266D01*
X32316022Y-15363914D01*
X32254893Y-15404759D01*
X32206243Y-15477568D01*
X31469161Y-15477568D01*
X31420511Y-15404759D01*
X31359382Y-15363914D01*
X31501029Y-15222266D01*
X31597702Y-14988877D01*
X31597702Y-14398318D01*
X31438952Y-14239568D01*
X30464702Y-14239568D01*
X30464702Y-14259568D01*
X30210702Y-14259568D01*
X30210702Y-14239568D01*
X29236452Y-14239568D01*
X29077702Y-14398318D01*
X29077702Y-14988877D01*
X29174375Y-15222266D01*
X29316022Y-15363914D01*
X29254893Y-15404759D01*
X29114545Y-15614803D01*
X29080333Y-15786802D01*
X29069143Y-15794279D01*
X29005823Y-15889044D01*
X26276480Y-18618389D01*
X26181712Y-18681711D01*
X26015035Y-18931161D01*
X25930854Y-19057146D01*
X25842765Y-19500000D01*
X25865001Y-19611788D01*
X25865000Y-21888217D01*
X25842765Y-22000000D01*
X25865000Y-22111782D01*
X25930854Y-22442854D01*
X26181711Y-22818289D01*
X26276482Y-22881613D01*
X26365001Y-22970132D01*
X26365000Y-25361782D01*
X26365001Y-25361787D01*
X26365000Y-27465000D01*
X26051504Y-27465000D01*
X25982809Y-27362191D01*
X25812352Y-27248294D01*
X25884699Y-27218327D01*
X26063327Y-27039698D01*
X26160000Y-26806309D01*
X26160000Y-26185750D01*
X26001250Y-26027000D01*
X25327000Y-26027000D01*
X25327000Y-26047000D01*
X25222440Y-26047000D01*
X25222440Y-25120000D01*
X25173157Y-24872235D01*
X25135000Y-24815129D01*
X25135000Y-24643750D01*
X25327000Y-24643750D01*
X25327000Y-25773000D01*
X26001250Y-25773000D01*
X26160000Y-25614250D01*
X26160000Y-24993691D01*
X26063327Y-24760302D01*
X25884699Y-24581673D01*
X25651310Y-24485000D01*
X25485750Y-24485000D01*
X25327000Y-24643750D01*
X25135000Y-24643750D01*
X25135000Y-23087161D01*
X25152337Y-23000000D01*
X25135000Y-22912839D01*
X25135000Y-22912835D01*
X25083652Y-22654690D01*
X24942107Y-22442854D01*
X24937424Y-22435845D01*
X24937423Y-22435844D01*
X24888049Y-22361951D01*
X24814156Y-22312577D01*
X24137892Y-21636314D01*
X24490625Y-21400625D01*
X24818839Y-20909418D01*
X24934092Y-20330000D01*
X24818839Y-19750582D01*
X24490625Y-19259375D01*
X24192239Y-19060000D01*
X24490625Y-18860625D01*
X24818839Y-18369418D01*
X24934092Y-17790000D01*
X24818839Y-17210582D01*
X24490625Y-16719375D01*
X24461314Y-16699790D01*
X24609698Y-16638327D01*
X24788327Y-16459699D01*
X24885000Y-16226310D01*
X24885000Y-15535750D01*
X24726250Y-15377000D01*
X23127000Y-15377000D01*
X23127000Y-15397000D01*
X22873000Y-15397000D01*
X22873000Y-15377000D01*
X21273750Y-15377000D01*
X21115000Y-15535750D01*
X21115000Y-16226310D01*
X21211673Y-16459699D01*
X21390302Y-16638327D01*
X21538686Y-16699790D01*
X21509375Y-16719375D01*
X21181161Y-17210582D01*
X21065908Y-17790000D01*
X20460000Y-17790000D01*
X20460000Y-14273690D01*
X21115000Y-14273690D01*
X21115000Y-14964250D01*
X21273750Y-15123000D01*
X22873000Y-15123000D01*
X22873000Y-13923750D01*
X23127000Y-13923750D01*
X23127000Y-15123000D01*
X24726250Y-15123000D01*
X24885000Y-14964250D01*
X24885000Y-14273690D01*
X24788327Y-14040301D01*
X24609698Y-13861673D01*
X24376309Y-13765000D01*
X23285750Y-13765000D01*
X23127000Y-13923750D01*
X22873000Y-13923750D01*
X22714250Y-13765000D01*
X21623691Y-13765000D01*
X21390302Y-13861673D01*
X21211673Y-14040301D01*
X21115000Y-14273690D01*
X20460000Y-14273690D01*
X20460000Y-13460000D01*
X29077702Y-13460000D01*
X29077702Y-13826818D01*
X29077702Y-13826818D01*
G37*
X29077702Y-13826818D02*
X29236452Y-13985568D01*
X30210702Y-13985568D01*
X30210702Y-13965568D01*
X30464702Y-13965568D01*
X30464702Y-13985568D01*
X31438952Y-13985568D01*
X31597702Y-13826818D01*
X31597702Y-13460000D01*
X32077702Y-13460000D01*
X32077702Y-13826818D01*
X32236452Y-13985568D01*
X33210702Y-13985568D01*
X33210702Y-13965568D01*
X33464702Y-13965568D01*
X33464702Y-13985568D01*
X34438952Y-13985568D01*
X34597702Y-13826818D01*
X34597702Y-13460000D01*
X35077702Y-13460000D01*
X35077702Y-13826818D01*
X35236452Y-13985568D01*
X36210702Y-13985568D01*
X36210702Y-13965568D01*
X36464702Y-13965568D01*
X36464702Y-13985568D01*
X37438952Y-13985568D01*
X37597702Y-13826818D01*
X37597702Y-13460000D01*
X38327702Y-13460000D01*
X38327702Y-13826818D01*
X38486452Y-13985568D01*
X39460702Y-13985568D01*
X39460702Y-13965568D01*
X39714702Y-13965568D01*
X39714702Y-13985568D01*
X40688952Y-13985568D01*
X40847702Y-13826818D01*
X40847702Y-13460000D01*
X41577702Y-13460000D01*
X41577702Y-13826818D01*
X41736452Y-13985568D01*
X42710702Y-13985568D01*
X42710702Y-13965568D01*
X42964702Y-13965568D01*
X42964702Y-13985568D01*
X43938952Y-13985568D01*
X44097702Y-13826818D01*
X44097702Y-13460000D01*
X52040001Y-13460000D01*
X52040000Y-33290000D01*
X20460000Y-33290000D01*
X20460000Y-24993691D01*
X22340000Y-24993691D01*
X22340000Y-25614250D01*
X22498750Y-25773000D01*
X23173000Y-25773000D01*
X23173000Y-24643750D01*
X23014250Y-24485000D01*
X22848690Y-24485000D01*
X22615301Y-24581673D01*
X22436673Y-24760302D01*
X22340000Y-24993691D01*
X20460000Y-24993691D01*
X20460000Y-17790000D01*
X21065908Y-17790000D01*
X21181161Y-18369418D01*
X21509375Y-18860625D01*
X21807761Y-19060000D01*
X21509375Y-19259375D01*
X21181161Y-19750582D01*
X21065908Y-20330000D01*
X21181161Y-20909418D01*
X21509375Y-21400625D01*
X22000582Y-21728839D01*
X22098017Y-21748220D01*
X22097663Y-21750000D01*
X22166348Y-22095309D01*
X22312576Y-22314154D01*
X22312578Y-22314156D01*
X22361952Y-22388049D01*
X22435845Y-22437423D01*
X23365000Y-23366579D01*
X23365001Y-24815129D01*
X23326843Y-24872235D01*
X23277560Y-25120000D01*
X23277560Y-26047000D01*
X23173000Y-26047000D01*
X23173000Y-26027000D01*
X22498750Y-26027000D01*
X22340000Y-26185750D01*
X22340000Y-26806309D01*
X22436673Y-27039698D01*
X22615301Y-27218327D01*
X22687648Y-27248294D01*
X22517191Y-27362191D01*
X22376843Y-27572235D01*
X22327560Y-27820000D01*
X22327560Y-29380000D01*
X22376843Y-29627765D01*
X22415001Y-29684872D01*
X22415000Y-31712839D01*
X22397663Y-31800000D01*
X22415000Y-31887161D01*
X22415000Y-31887164D01*
X22466348Y-32145309D01*
X22661951Y-32438049D01*
X22735847Y-32487425D01*
X23062575Y-32814153D01*
X23111951Y-32888049D01*
X23404690Y-33083652D01*
X23662835Y-33135000D01*
X23662839Y-33135000D01*
X23749999Y-33152337D01*
X23837159Y-33135000D01*
X38912839Y-33135000D01*
X39000000Y-33152337D01*
X39087161Y-33135000D01*
X39087165Y-33135000D01*
X39345310Y-33083652D01*
X39638049Y-32888049D01*
X39687425Y-32814153D01*
X40814156Y-31687423D01*
X40888049Y-31638049D01*
X41070496Y-31365000D01*
X41083652Y-31345310D01*
X41129945Y-31112576D01*
X41135000Y-31087165D01*
X41135000Y-31087161D01*
X41152337Y-31000000D01*
X41135000Y-30912839D01*
X41135000Y-30850000D01*
X41302560Y-30850000D01*
X41302560Y-31950000D01*
X41351843Y-32197765D01*
X41492191Y-32407809D01*
X41702235Y-32548157D01*
X41950000Y-32597440D01*
X43050000Y-32597440D01*
X43297765Y-32548157D01*
X43317456Y-32535000D01*
X44738217Y-32535000D01*
X44850000Y-32557235D01*
X44961783Y-32535000D01*
X45292855Y-32469146D01*
X45668289Y-32218289D01*
X45723941Y-32135000D01*
X46102560Y-32135000D01*
X46102560Y-32500000D01*
X46151843Y-32747765D01*
X46292191Y-32957809D01*
X46502235Y-33098157D01*
X46750000Y-33147440D01*
X49750000Y-33147440D01*
X49997765Y-33098157D01*
X50207809Y-32957809D01*
X50348157Y-32747765D01*
X50397440Y-32500000D01*
X50397440Y-29500000D01*
X50348157Y-29252235D01*
X50207809Y-29042191D01*
X49997765Y-28901843D01*
X49750000Y-28852560D01*
X46750000Y-28852560D01*
X46502235Y-28901843D01*
X46292191Y-29042191D01*
X46151843Y-29252235D01*
X46102560Y-29500000D01*
X46102560Y-29865000D01*
X45361781Y-29865000D01*
X45249999Y-29842765D01*
X45138217Y-29865000D01*
X44807145Y-29930854D01*
X44431711Y-30181711D01*
X44376059Y-30265000D01*
X43317456Y-30265000D01*
X43297765Y-30251843D01*
X43050000Y-30202560D01*
X41950000Y-30202560D01*
X41702235Y-30251843D01*
X41492191Y-30392191D01*
X41351843Y-30602235D01*
X41302560Y-30850000D01*
X41135000Y-30850000D01*
X41135000Y-28050000D01*
X41302560Y-28050000D01*
X41302560Y-29150000D01*
X41351843Y-29397765D01*
X41492191Y-29607809D01*
X41702235Y-29748157D01*
X41950000Y-29797440D01*
X43050000Y-29797440D01*
X43297765Y-29748157D01*
X43507809Y-29607809D01*
X43648157Y-29397765D01*
X43697440Y-29150000D01*
X43697440Y-28050000D01*
X43648157Y-27802235D01*
X43635000Y-27782544D01*
X43635000Y-27320131D01*
X43900132Y-27055000D01*
X46409225Y-27055000D01*
X46440034Y-27129380D01*
X47040620Y-27729966D01*
X47825322Y-28055000D01*
X48674678Y-28055000D01*
X49459380Y-27729966D01*
X50059966Y-27129380D01*
X50385000Y-26344678D01*
X50385000Y-25495322D01*
X50059966Y-24710620D01*
X49459380Y-24110034D01*
X48674678Y-23785000D01*
X47825322Y-23785000D01*
X47040620Y-24110034D01*
X46440034Y-24710620D01*
X46409225Y-24785000D01*
X43541783Y-24785000D01*
X43430000Y-24762765D01*
X43318217Y-24785000D01*
X42987145Y-24850854D01*
X42611711Y-25101711D01*
X42548389Y-25196479D01*
X41776481Y-25968387D01*
X41681711Y-26031711D01*
X41503940Y-26297765D01*
X41430854Y-26407146D01*
X41342765Y-26850000D01*
X41365000Y-26961783D01*
X41365000Y-27782544D01*
X41351843Y-27802235D01*
X41302560Y-28050000D01*
X41135000Y-28050000D01*
X41135000Y-23366578D01*
X42776579Y-21725000D01*
X46305671Y-21725000D01*
X46440034Y-22049380D01*
X47040620Y-22649966D01*
X47825322Y-22975000D01*
X48674678Y-22975000D01*
X49459380Y-22649966D01*
X50059966Y-22049380D01*
X50385000Y-21264678D01*
X50385000Y-20415322D01*
X50059966Y-19630620D01*
X49459380Y-19030034D01*
X48674678Y-18705000D01*
X47825322Y-18705000D01*
X47040620Y-19030034D01*
X46440034Y-19630620D01*
X46305671Y-19955000D01*
X42497159Y-19955000D01*
X42409999Y-19937663D01*
X42322839Y-19955000D01*
X42322835Y-19955000D01*
X42064690Y-20006348D01*
X42064688Y-20006349D01*
X42064689Y-20006349D01*
X41845845Y-20152576D01*
X41845844Y-20152577D01*
X41771951Y-20201951D01*
X41722577Y-20275844D01*
X39685847Y-22312575D01*
X39611951Y-22361951D01*
X39416348Y-22654691D01*
X39365000Y-22912836D01*
X39365000Y-22912839D01*
X39347663Y-23000000D01*
X39365000Y-23087161D01*
X39365001Y-30633420D01*
X38633422Y-31365000D01*
X24185000Y-31365000D01*
X24185000Y-29684871D01*
X24223157Y-29627765D01*
X24250000Y-29492815D01*
X24276843Y-29627765D01*
X24417191Y-29837809D01*
X24627235Y-29978157D01*
X24875000Y-30027440D01*
X25525000Y-30027440D01*
X25772765Y-29978157D01*
X25982809Y-29837809D01*
X26051504Y-29735000D01*
X26788217Y-29735000D01*
X26900000Y-29757235D01*
X27011783Y-29735000D01*
X27342855Y-29669146D01*
X27718289Y-29418289D01*
X27781613Y-29323518D01*
X28223519Y-28881612D01*
X28318289Y-28818289D01*
X28452560Y-28617338D01*
X28452560Y-28750000D01*
X28501843Y-28997765D01*
X28642191Y-29207809D01*
X28852235Y-29348157D01*
X29100000Y-29397440D01*
X30400000Y-29397440D01*
X30647765Y-29348157D01*
X30857809Y-29207809D01*
X30998157Y-28997765D01*
X31000000Y-28988500D01*
X31001843Y-28997765D01*
X31142191Y-29207809D01*
X31352235Y-29348157D01*
X31600000Y-29397440D01*
X32900000Y-29397440D01*
X33147765Y-29348157D01*
X33357809Y-29207809D01*
X33498157Y-28997765D01*
X33547440Y-28750000D01*
X33547440Y-27250000D01*
X33498157Y-27002235D01*
X33357809Y-26792191D01*
X33147765Y-26651843D01*
X33119791Y-26646279D01*
X33259699Y-26588327D01*
X33438327Y-26409698D01*
X33535000Y-26176309D01*
X33535000Y-25585750D01*
X33376250Y-25427000D01*
X32377000Y-25427000D01*
X32377000Y-25447000D01*
X32123000Y-25447000D01*
X32123000Y-25427000D01*
X32103000Y-25427000D01*
X32103000Y-25173000D01*
X32123000Y-25173000D01*
X32123000Y-24073750D01*
X32377000Y-24073750D01*
X32377000Y-25173000D01*
X33376250Y-25173000D01*
X33535000Y-25014250D01*
X33535000Y-24423691D01*
X33438327Y-24190302D01*
X33259699Y-24011673D01*
X33026310Y-23915000D01*
X32535750Y-23915000D01*
X32377000Y-24073750D01*
X32123000Y-24073750D01*
X31964250Y-23915000D01*
X31473690Y-23915000D01*
X31240301Y-24011673D01*
X31061673Y-24190302D01*
X31003721Y-24330209D01*
X30998157Y-24302235D01*
X30885000Y-24132885D01*
X30885000Y-23611782D01*
X30907235Y-23499999D01*
X30819146Y-23057145D01*
X30742779Y-22942854D01*
X30568289Y-22681711D01*
X30473521Y-22618389D01*
X30135000Y-22279869D01*
X30135000Y-21677239D01*
X30162469Y-21649770D01*
X30200000Y-21657235D01*
X30311783Y-21635000D01*
X30642855Y-21569146D01*
X31018289Y-21318289D01*
X31081612Y-21223519D01*
X31607692Y-20697440D01*
X31750000Y-20697440D01*
X31997765Y-20648157D01*
X32207809Y-20507809D01*
X32348157Y-20297765D01*
X32397440Y-20050000D01*
X32397440Y-18950000D01*
X32348157Y-18702235D01*
X32207809Y-18492191D01*
X31997765Y-18351843D01*
X31750000Y-18302560D01*
X30650000Y-18302560D01*
X30402235Y-18351843D01*
X30192191Y-18492191D01*
X30051843Y-18702235D01*
X30002560Y-18950000D01*
X30002560Y-19092308D01*
X29953553Y-19141314D01*
X29926153Y-19113914D01*
X29325222Y-18865000D01*
X29240132Y-18865000D01*
X30095125Y-18010008D01*
X30962702Y-18010008D01*
X31210467Y-17960725D01*
X31420511Y-17820377D01*
X31469161Y-17747568D01*
X32206243Y-17747568D01*
X32254893Y-17820377D01*
X32464937Y-17960725D01*
X32712702Y-18010008D01*
X32865001Y-18010008D01*
X32865000Y-18682544D01*
X32851843Y-18702235D01*
X32802560Y-18950000D01*
X32802560Y-20050000D01*
X32851843Y-20297765D01*
X32865000Y-20317456D01*
X32865000Y-21138217D01*
X32842765Y-21250000D01*
X32928467Y-21680854D01*
X32930854Y-21692854D01*
X33181711Y-22068289D01*
X33276482Y-22131613D01*
X33865000Y-22720131D01*
X33865000Y-23075222D01*
X34113914Y-23676153D01*
X34302761Y-23865000D01*
X34223690Y-23865000D01*
X33990301Y-23961673D01*
X33811673Y-24140302D01*
X33715000Y-24373691D01*
X33715000Y-24964250D01*
X33873750Y-25123000D01*
X34873000Y-25123000D01*
X34873000Y-25103000D01*
X35127000Y-25103000D01*
X35127000Y-25123000D01*
X36126250Y-25123000D01*
X36285000Y-24964250D01*
X36285000Y-24373691D01*
X36221665Y-24220788D01*
X36426153Y-24136086D01*
X36603554Y-23958685D01*
X36615000Y-23970132D01*
X36615000Y-24082885D01*
X36501843Y-24252235D01*
X36452560Y-24500000D01*
X36452560Y-26000000D01*
X36501843Y-26247765D01*
X36642191Y-26457809D01*
X36852235Y-26598157D01*
X36861500Y-26600000D01*
X36852235Y-26601843D01*
X36642191Y-26742191D01*
X36501843Y-26952235D01*
X36469467Y-27115000D01*
X36280533Y-27115000D01*
X36248157Y-26952235D01*
X36107809Y-26742191D01*
X35897765Y-26601843D01*
X35869791Y-26596279D01*
X36009699Y-26538327D01*
X36188327Y-26359698D01*
X36285000Y-26126309D01*
X36285000Y-25535750D01*
X36126250Y-25377000D01*
X35127000Y-25377000D01*
X35127000Y-25397000D01*
X34873000Y-25397000D01*
X34873000Y-25377000D01*
X33873750Y-25377000D01*
X33715000Y-25535750D01*
X33715000Y-26126309D01*
X33811673Y-26359698D01*
X33990301Y-26538327D01*
X34130209Y-26596279D01*
X34102235Y-26601843D01*
X33892191Y-26742191D01*
X33751843Y-26952235D01*
X33702560Y-27200000D01*
X33702560Y-28700000D01*
X33751843Y-28947765D01*
X33892191Y-29157809D01*
X34102235Y-29298157D01*
X34350000Y-29347440D01*
X35650000Y-29347440D01*
X35897765Y-29298157D01*
X36107809Y-29157809D01*
X36248157Y-28947765D01*
X36280533Y-28785000D01*
X36469467Y-28785000D01*
X36501843Y-28947765D01*
X36642191Y-29157809D01*
X36852235Y-29298157D01*
X37100000Y-29347440D01*
X38400000Y-29347440D01*
X38647765Y-29298157D01*
X38857809Y-29157809D01*
X38998157Y-28947765D01*
X39047440Y-28700000D01*
X39047440Y-27200000D01*
X38998157Y-26952235D01*
X38857809Y-26742191D01*
X38647765Y-26601843D01*
X38638500Y-26600000D01*
X38647765Y-26598157D01*
X38857809Y-26457809D01*
X38998157Y-26247765D01*
X39047440Y-26000000D01*
X39047440Y-24500000D01*
X38998157Y-24252235D01*
X38885000Y-24082885D01*
X38885000Y-23611782D01*
X38907235Y-23499999D01*
X38819146Y-23057145D01*
X38742779Y-22942854D01*
X38568289Y-22681711D01*
X38473521Y-22618389D01*
X37881613Y-22026481D01*
X37818289Y-21931711D01*
X37442855Y-21680854D01*
X37111783Y-21615000D01*
X37000000Y-21592765D01*
X36888217Y-21615000D01*
X36677239Y-21615000D01*
X36426153Y-21363914D01*
X35825222Y-21115000D01*
X35470131Y-21115000D01*
X35135000Y-20779869D01*
X35135000Y-20317456D01*
X35148157Y-20297765D01*
X35197440Y-20050000D01*
X35197440Y-18950000D01*
X35148157Y-18702235D01*
X35135000Y-18682544D01*
X35135000Y-17747568D01*
X35206243Y-17747568D01*
X35254893Y-17820377D01*
X35464937Y-17960725D01*
X35712702Y-18010008D01*
X36962702Y-18010008D01*
X37210467Y-17960725D01*
X37420511Y-17820377D01*
X37469161Y-17747568D01*
X38456243Y-17747568D01*
X38504893Y-17820377D01*
X38714937Y-17960725D01*
X38962702Y-18010008D01*
X40212702Y-18010008D01*
X40460467Y-17960725D01*
X40670511Y-17820377D01*
X40719161Y-17747568D01*
X41706243Y-17747568D01*
X41754893Y-17820377D01*
X41964937Y-17960725D01*
X42212702Y-18010008D01*
X43462702Y-18010008D01*
X43710467Y-17960725D01*
X43920511Y-17820377D01*
X44060859Y-17610333D01*
X44110142Y-17362568D01*
X44110142Y-17273970D01*
X46915635Y-17273970D01*
X47075418Y-17592739D01*
X47866187Y-17902723D01*
X48715387Y-17886497D01*
X49424582Y-17592739D01*
X49584365Y-17273970D01*
X48250000Y-15939605D01*
X46915635Y-17273970D01*
X44110142Y-17273970D01*
X44110142Y-15862568D01*
X44060859Y-15614803D01*
X43920511Y-15404759D01*
X43877750Y-15376187D01*
X46107277Y-15376187D01*
X46123503Y-16225387D01*
X46417261Y-16934582D01*
X46736030Y-17094365D01*
X48070395Y-15760000D01*
X48429605Y-15760000D01*
X49763970Y-17094365D01*
X50082739Y-16934582D01*
X50392723Y-16143813D01*
X50376497Y-15294613D01*
X50082739Y-14585418D01*
X49763970Y-14425635D01*
X48429605Y-15760000D01*
X48070395Y-15760000D01*
X46736030Y-14425635D01*
X46417261Y-14585418D01*
X46107277Y-15376187D01*
X43877750Y-15376187D01*
X43859382Y-15363914D01*
X44001029Y-15222266D01*
X44097702Y-14988877D01*
X44097702Y-14398318D01*
X43945414Y-14246030D01*
X46915635Y-14246030D01*
X48250000Y-15580395D01*
X49584365Y-14246030D01*
X49424582Y-13927261D01*
X48633813Y-13617277D01*
X47784613Y-13633503D01*
X47075418Y-13927261D01*
X46915635Y-14246030D01*
X43945414Y-14246030D01*
X43938952Y-14239568D01*
X42964702Y-14239568D01*
X42964702Y-14259568D01*
X42710702Y-14259568D01*
X42710702Y-14239568D01*
X41736452Y-14239568D01*
X41577702Y-14398318D01*
X41577702Y-14988877D01*
X41674375Y-15222266D01*
X41816022Y-15363914D01*
X41754893Y-15404759D01*
X41706243Y-15477568D01*
X40719161Y-15477568D01*
X40670511Y-15404759D01*
X40609382Y-15363914D01*
X40751029Y-15222266D01*
X40847702Y-14988877D01*
X40847702Y-14398318D01*
X40688952Y-14239568D01*
X39714702Y-14239568D01*
X39714702Y-14259568D01*
X39460702Y-14259568D01*
X39460702Y-14239568D01*
X38486452Y-14239568D01*
X38327702Y-14398318D01*
X38327702Y-14988877D01*
X38424375Y-15222266D01*
X38566022Y-15363914D01*
X38504893Y-15404759D01*
X38456243Y-15477568D01*
X37469161Y-15477568D01*
X37420511Y-15404759D01*
X37359382Y-15363914D01*
X37501029Y-15222266D01*
X37597702Y-14988877D01*
X37597702Y-14398318D01*
X37438952Y-14239568D01*
X36464702Y-14239568D01*
X36464702Y-14259568D01*
X36210702Y-14259568D01*
X36210702Y-14239568D01*
X35236452Y-14239568D01*
X35077702Y-14398318D01*
X35077702Y-14988877D01*
X35174375Y-15222266D01*
X35316022Y-15363914D01*
X35254893Y-15404759D01*
X35206243Y-15477568D01*
X34469161Y-15477568D01*
X34420511Y-15404759D01*
X34359382Y-15363914D01*
X34501029Y-15222266D01*
X34597702Y-14988877D01*
X34597702Y-14398318D01*
X34438952Y-14239568D01*
X33464702Y-14239568D01*
X33464702Y-14259568D01*
X33210702Y-14259568D01*
X33210702Y-14239568D01*
X32236452Y-14239568D01*
X32077702Y-14398318D01*
X32077702Y-14988877D01*
X32174375Y-15222266D01*
X32316022Y-15363914D01*
X32254893Y-15404759D01*
X32206243Y-15477568D01*
X31469161Y-15477568D01*
X31420511Y-15404759D01*
X31359382Y-15363914D01*
X31501029Y-15222266D01*
X31597702Y-14988877D01*
X31597702Y-14398318D01*
X31438952Y-14239568D01*
X30464702Y-14239568D01*
X30464702Y-14259568D01*
X30210702Y-14259568D01*
X30210702Y-14239568D01*
X29236452Y-14239568D01*
X29077702Y-14398318D01*
X29077702Y-14988877D01*
X29174375Y-15222266D01*
X29316022Y-15363914D01*
X29254893Y-15404759D01*
X29114545Y-15614803D01*
X29080333Y-15786802D01*
X29069143Y-15794279D01*
X29005823Y-15889044D01*
X26276480Y-18618389D01*
X26181712Y-18681711D01*
X26015035Y-18931161D01*
X25930854Y-19057146D01*
X25842765Y-19500000D01*
X25865001Y-19611788D01*
X25865000Y-21888217D01*
X25842765Y-22000000D01*
X25865000Y-22111782D01*
X25930854Y-22442854D01*
X26181711Y-22818289D01*
X26276482Y-22881613D01*
X26365001Y-22970132D01*
X26365000Y-25361782D01*
X26365001Y-25361787D01*
X26365000Y-27465000D01*
X26051504Y-27465000D01*
X25982809Y-27362191D01*
X25812352Y-27248294D01*
X25884699Y-27218327D01*
X26063327Y-27039698D01*
X26160000Y-26806309D01*
X26160000Y-26185750D01*
X26001250Y-26027000D01*
X25327000Y-26027000D01*
X25327000Y-26047000D01*
X25222440Y-26047000D01*
X25222440Y-25120000D01*
X25173157Y-24872235D01*
X25135000Y-24815129D01*
X25135000Y-24643750D01*
X25327000Y-24643750D01*
X25327000Y-25773000D01*
X26001250Y-25773000D01*
X26160000Y-25614250D01*
X26160000Y-24993691D01*
X26063327Y-24760302D01*
X25884699Y-24581673D01*
X25651310Y-24485000D01*
X25485750Y-24485000D01*
X25327000Y-24643750D01*
X25135000Y-24643750D01*
X25135000Y-23087161D01*
X25152337Y-23000000D01*
X25135000Y-22912839D01*
X25135000Y-22912835D01*
X25083652Y-22654690D01*
X24942107Y-22442854D01*
X24937424Y-22435845D01*
X24937423Y-22435844D01*
X24888049Y-22361951D01*
X24814156Y-22312577D01*
X24137892Y-21636314D01*
X24490625Y-21400625D01*
X24818839Y-20909418D01*
X24934092Y-20330000D01*
X24818839Y-19750582D01*
X24490625Y-19259375D01*
X24192239Y-19060000D01*
X24490625Y-18860625D01*
X24818839Y-18369418D01*
X24934092Y-17790000D01*
X24818839Y-17210582D01*
X24490625Y-16719375D01*
X24461314Y-16699790D01*
X24609698Y-16638327D01*
X24788327Y-16459699D01*
X24885000Y-16226310D01*
X24885000Y-15535750D01*
X24726250Y-15377000D01*
X23127000Y-15377000D01*
X23127000Y-15397000D01*
X22873000Y-15397000D01*
X22873000Y-15377000D01*
X21273750Y-15377000D01*
X21115000Y-15535750D01*
X21115000Y-16226310D01*
X21211673Y-16459699D01*
X21390302Y-16638327D01*
X21538686Y-16699790D01*
X21509375Y-16719375D01*
X21181161Y-17210582D01*
X21065908Y-17790000D01*
X20460000Y-17790000D01*
X20460000Y-14273690D01*
X21115000Y-14273690D01*
X21115000Y-14964250D01*
X21273750Y-15123000D01*
X22873000Y-15123000D01*
X22873000Y-13923750D01*
X23127000Y-13923750D01*
X23127000Y-15123000D01*
X24726250Y-15123000D01*
X24885000Y-14964250D01*
X24885000Y-14273690D01*
X24788327Y-14040301D01*
X24609698Y-13861673D01*
X24376309Y-13765000D01*
X23285750Y-13765000D01*
X23127000Y-13923750D01*
X22873000Y-13923750D01*
X22714250Y-13765000D01*
X21623691Y-13765000D01*
X21390302Y-13861673D01*
X21211673Y-14040301D01*
X21115000Y-14273690D01*
X20460000Y-14273690D01*
X20460000Y-13460000D01*
X29077702Y-13460000D01*
X29077702Y-13826818D01*
G04 #@! TD*
M02*
