G04 #@! TF.GenerationSoftware,KiCad,Pcbnew,5.0.0-fee4fd1~66~ubuntu18.04.1*
G04 #@! TF.CreationDate,2018-10-08T01:42:51+08:00*
G04 #@! TF.ProjectId,ws2812-stm32-interface,7773323831322D73746D33322D696E74,rev?*
G04 #@! TF.SameCoordinates,Original*
G04 #@! TF.FileFunction,Soldermask,Top*
G04 #@! TF.FilePolarity,Negative*
%FSLAX46Y46*%
G04 Gerber Fmt 4.6, Leading zero omitted, Abs format (unit mm)*
G04 Created by KiCad (PCBNEW 5.0.0-fee4fd1~66~ubuntu18.04.1) date Mon Oct  8 01:42:51 2018*
%MOMM*%
%LPD*%
G01*
G04 APERTURE LIST*
%ADD10O,2.940000X2.100000*%
%ADD11R,2.900000X2.100000*%
%ADD12R,2.940000X2.400000*%
%ADD13O,2.940000X2.400000*%
%ADD14R,2.000000X1.400000*%
%ADD15C,3.400000*%
%ADD16R,3.400000X3.400000*%
%ADD17R,1.900000X1.650000*%
%ADD18R,1.500000X1.500000*%
%ADD19R,1.900000X1.700000*%
%ADD20R,1.960000X1.050000*%
%ADD21O,2.100000X2.940000*%
%ADD22R,2.100000X2.900000*%
G04 APERTURE END LIST*
D10*
G04 #@! TO.C,JP1*
X50800000Y-26670000D03*
X50800000Y-29210000D03*
D11*
X50800000Y-31750000D03*
G04 #@! TD*
D12*
G04 #@! TO.C,J3*
X38100000Y-76200000D03*
D13*
X38100000Y-73660000D03*
X38100000Y-71120000D03*
X38100000Y-68580000D03*
G04 #@! TD*
G04 #@! TO.C,J4*
X38100000Y-55880000D03*
X38100000Y-58420000D03*
X38100000Y-60960000D03*
D12*
X38100000Y-63500000D03*
G04 #@! TD*
D14*
G04 #@! TO.C,D7*
X111727426Y-16688000D03*
X111727426Y-19888000D03*
X116727426Y-16688000D03*
X116727426Y-19888000D03*
G04 #@! TD*
G04 #@! TO.C,D23*
X111727426Y-34540570D03*
X111727426Y-37740570D03*
X116727426Y-34540570D03*
X116727426Y-37740570D03*
G04 #@! TD*
G04 #@! TO.C,D2*
X70644571Y-19888000D03*
X70644571Y-16688000D03*
X65644571Y-19888000D03*
X65644571Y-16688000D03*
G04 #@! TD*
G04 #@! TO.C,D17*
X56428000Y-34540570D03*
X56428000Y-37740570D03*
X61428000Y-34540570D03*
X61428000Y-37740570D03*
G04 #@! TD*
G04 #@! TO.C,D18*
X70644571Y-37740570D03*
X70644571Y-34540570D03*
X65644571Y-37740570D03*
X65644571Y-34540570D03*
G04 #@! TD*
G04 #@! TO.C,D19*
X74861142Y-34540570D03*
X74861142Y-37740570D03*
X79861142Y-34540570D03*
X79861142Y-37740570D03*
G04 #@! TD*
G04 #@! TO.C,D20*
X89077713Y-37740570D03*
X89077713Y-34540570D03*
X84077713Y-37740570D03*
X84077713Y-34540570D03*
G04 #@! TD*
G04 #@! TO.C,D21*
X93294284Y-34540570D03*
X93294284Y-37740570D03*
X98294284Y-34540570D03*
X98294284Y-37740570D03*
G04 #@! TD*
G04 #@! TO.C,D22*
X107510855Y-37740570D03*
X107510855Y-34540570D03*
X102510855Y-37740570D03*
X102510855Y-34540570D03*
G04 #@! TD*
G04 #@! TO.C,D24*
X120944000Y-34540570D03*
X120944000Y-37740570D03*
X125944000Y-34540570D03*
X125944000Y-37740570D03*
G04 #@! TD*
G04 #@! TO.C,D25*
X61428000Y-46666855D03*
X61428000Y-43466855D03*
X56428000Y-46666855D03*
X56428000Y-43466855D03*
G04 #@! TD*
G04 #@! TO.C,D26*
X65644571Y-43466855D03*
X65644571Y-46666855D03*
X70644571Y-43466855D03*
X70644571Y-46666855D03*
G04 #@! TD*
G04 #@! TO.C,D27*
X79861142Y-46666855D03*
X79861142Y-43466855D03*
X74861142Y-46666855D03*
X74861142Y-43466855D03*
G04 #@! TD*
G04 #@! TO.C,D28*
X84077713Y-43466855D03*
X84077713Y-46666855D03*
X89077713Y-43466855D03*
X89077713Y-46666855D03*
G04 #@! TD*
G04 #@! TO.C,D29*
X98294284Y-46666855D03*
X98294284Y-43466855D03*
X93294284Y-46666855D03*
X93294284Y-43466855D03*
G04 #@! TD*
G04 #@! TO.C,D32*
X120944000Y-43466855D03*
X120944000Y-46666855D03*
X125944000Y-43466855D03*
X125944000Y-46666855D03*
G04 #@! TD*
G04 #@! TO.C,D15*
X116727426Y-28814285D03*
X116727426Y-25614285D03*
X111727426Y-28814285D03*
X111727426Y-25614285D03*
G04 #@! TD*
G04 #@! TO.C,D16*
X120944000Y-25614285D03*
X120944000Y-28814285D03*
X125944000Y-25614285D03*
X125944000Y-28814285D03*
G04 #@! TD*
G04 #@! TO.C,D1*
X61428000Y-19888000D03*
X61428000Y-16688000D03*
X56428000Y-19888000D03*
X56428000Y-16688000D03*
G04 #@! TD*
G04 #@! TO.C,D3*
X74861142Y-16688000D03*
X74861142Y-19888000D03*
X79861142Y-16688000D03*
X79861142Y-19888000D03*
G04 #@! TD*
G04 #@! TO.C,D4*
X89077713Y-19888000D03*
X89077713Y-16688000D03*
X84077713Y-19888000D03*
X84077713Y-16688000D03*
G04 #@! TD*
G04 #@! TO.C,D5*
X93294284Y-16688000D03*
X93294284Y-19888000D03*
X98294284Y-16688000D03*
X98294284Y-19888000D03*
G04 #@! TD*
G04 #@! TO.C,D6*
X107510855Y-19888000D03*
X107510855Y-16688000D03*
X102510855Y-19888000D03*
X102510855Y-16688000D03*
G04 #@! TD*
G04 #@! TO.C,D8*
X125944000Y-19888000D03*
X125944000Y-16688000D03*
X120944000Y-19888000D03*
X120944000Y-16688000D03*
G04 #@! TD*
G04 #@! TO.C,D9*
X56428000Y-25614285D03*
X56428000Y-28814285D03*
X61428000Y-25614285D03*
X61428000Y-28814285D03*
G04 #@! TD*
G04 #@! TO.C,D10*
X70644571Y-28814285D03*
X70644571Y-25614285D03*
X65644571Y-28814285D03*
X65644571Y-25614285D03*
G04 #@! TD*
G04 #@! TO.C,D11*
X74861142Y-25614285D03*
X74861142Y-28814285D03*
X79861142Y-25614285D03*
X79861142Y-28814285D03*
G04 #@! TD*
G04 #@! TO.C,D12*
X89077713Y-28814285D03*
X89077713Y-25614285D03*
X84077713Y-28814285D03*
X84077713Y-25614285D03*
G04 #@! TD*
G04 #@! TO.C,D13*
X93294284Y-25614285D03*
X93294284Y-28814285D03*
X98294284Y-25614285D03*
X98294284Y-28814285D03*
G04 #@! TD*
G04 #@! TO.C,D64*
X125944000Y-82372000D03*
X125944000Y-79172000D03*
X120944000Y-82372000D03*
X120944000Y-79172000D03*
G04 #@! TD*
G04 #@! TO.C,D14*
X102510855Y-25614285D03*
X102510855Y-28814285D03*
X107510855Y-25614285D03*
X107510855Y-28814285D03*
G04 #@! TD*
G04 #@! TO.C,D30*
X107510855Y-46666855D03*
X107510855Y-43466855D03*
X102510855Y-46666855D03*
X102510855Y-43466855D03*
G04 #@! TD*
G04 #@! TO.C,D55*
X116727426Y-73445710D03*
X116727426Y-70245710D03*
X111727426Y-73445710D03*
X111727426Y-70245710D03*
G04 #@! TD*
G04 #@! TO.C,D34*
X70644571Y-55593140D03*
X70644571Y-52393140D03*
X65644571Y-55593140D03*
X65644571Y-52393140D03*
G04 #@! TD*
G04 #@! TO.C,D49*
X61428000Y-73445710D03*
X61428000Y-70245710D03*
X56428000Y-73445710D03*
X56428000Y-70245710D03*
G04 #@! TD*
G04 #@! TO.C,D50*
X65644571Y-70245710D03*
X65644571Y-73445710D03*
X70644571Y-70245710D03*
X70644571Y-73445710D03*
G04 #@! TD*
G04 #@! TO.C,D51*
X79861142Y-73445710D03*
X79861142Y-70245710D03*
X74861142Y-73445710D03*
X74861142Y-70245710D03*
G04 #@! TD*
G04 #@! TO.C,D52*
X84077713Y-70245710D03*
X84077713Y-73445710D03*
X89077713Y-70245710D03*
X89077713Y-73445710D03*
G04 #@! TD*
G04 #@! TO.C,D53*
X98294284Y-73445710D03*
X98294284Y-70245710D03*
X93294284Y-73445710D03*
X93294284Y-70245710D03*
G04 #@! TD*
G04 #@! TO.C,D54*
X102510855Y-70245710D03*
X102510855Y-73445710D03*
X107510855Y-70245710D03*
X107510855Y-73445710D03*
G04 #@! TD*
G04 #@! TO.C,D56*
X125944000Y-73445710D03*
X125944000Y-70245710D03*
X120944000Y-73445710D03*
X120944000Y-70245710D03*
G04 #@! TD*
G04 #@! TO.C,D57*
X61428000Y-82372000D03*
X61428000Y-79172000D03*
X56428000Y-82372000D03*
X56428000Y-79172000D03*
G04 #@! TD*
G04 #@! TO.C,D58*
X65644571Y-79172000D03*
X65644571Y-82372000D03*
X70644571Y-79172000D03*
X70644571Y-82372000D03*
G04 #@! TD*
G04 #@! TO.C,D59*
X79861142Y-82372000D03*
X79861142Y-79172000D03*
X74861142Y-82372000D03*
X74861142Y-79172000D03*
G04 #@! TD*
G04 #@! TO.C,D60*
X84077713Y-79172000D03*
X84077713Y-82372000D03*
X89077713Y-79172000D03*
X89077713Y-82372000D03*
G04 #@! TD*
G04 #@! TO.C,D61*
X98294284Y-82372000D03*
X98294284Y-79172000D03*
X93294284Y-82372000D03*
X93294284Y-79172000D03*
G04 #@! TD*
G04 #@! TO.C,D63*
X111727426Y-79172000D03*
X111727426Y-82372000D03*
X116727426Y-79172000D03*
X116727426Y-82372000D03*
G04 #@! TD*
G04 #@! TO.C,D31*
X116727426Y-46666855D03*
X116727426Y-43466855D03*
X111727426Y-46666855D03*
X111727426Y-43466855D03*
G04 #@! TD*
G04 #@! TO.C,D47*
X116727426Y-64519425D03*
X116727426Y-61319425D03*
X111727426Y-64519425D03*
X111727426Y-61319425D03*
G04 #@! TD*
G04 #@! TO.C,D48*
X125944000Y-64519425D03*
X125944000Y-61319425D03*
X120944000Y-64519425D03*
X120944000Y-61319425D03*
G04 #@! TD*
G04 #@! TO.C,D33*
X56428000Y-52393140D03*
X56428000Y-55593140D03*
X61428000Y-52393140D03*
X61428000Y-55593140D03*
G04 #@! TD*
G04 #@! TO.C,D46*
X107510855Y-64519425D03*
X107510855Y-61319425D03*
X102510855Y-64519425D03*
X102510855Y-61319425D03*
G04 #@! TD*
G04 #@! TO.C,D45*
X93294284Y-61319425D03*
X93294284Y-64519425D03*
X98294284Y-61319425D03*
X98294284Y-64519425D03*
G04 #@! TD*
G04 #@! TO.C,D44*
X89077713Y-64519425D03*
X89077713Y-61319425D03*
X84077713Y-64519425D03*
X84077713Y-61319425D03*
G04 #@! TD*
G04 #@! TO.C,D43*
X74861142Y-61319425D03*
X74861142Y-64519425D03*
X79861142Y-61319425D03*
X79861142Y-64519425D03*
G04 #@! TD*
G04 #@! TO.C,D42*
X70644571Y-64519425D03*
X70644571Y-61319425D03*
X65644571Y-64519425D03*
X65644571Y-61319425D03*
G04 #@! TD*
G04 #@! TO.C,D41*
X56428000Y-61319425D03*
X56428000Y-64519425D03*
X61428000Y-61319425D03*
X61428000Y-64519425D03*
G04 #@! TD*
G04 #@! TO.C,D40*
X125944000Y-55593140D03*
X125944000Y-52393140D03*
X120944000Y-55593140D03*
X120944000Y-52393140D03*
G04 #@! TD*
G04 #@! TO.C,D39*
X111727426Y-52393140D03*
X111727426Y-55593140D03*
X116727426Y-52393140D03*
X116727426Y-55593140D03*
G04 #@! TD*
G04 #@! TO.C,D38*
X107510855Y-55593140D03*
X107510855Y-52393140D03*
X102510855Y-55593140D03*
X102510855Y-52393140D03*
G04 #@! TD*
G04 #@! TO.C,D37*
X93294284Y-52393140D03*
X93294284Y-55593140D03*
X98294284Y-52393140D03*
X98294284Y-55593140D03*
G04 #@! TD*
G04 #@! TO.C,D36*
X89077713Y-55593140D03*
X89077713Y-52393140D03*
X84077713Y-55593140D03*
X84077713Y-52393140D03*
G04 #@! TD*
G04 #@! TO.C,D62*
X102510855Y-79172000D03*
X102510855Y-82372000D03*
X107510855Y-79172000D03*
X107510855Y-82372000D03*
G04 #@! TD*
G04 #@! TO.C,D35*
X79861142Y-55593140D03*
X79861142Y-52393140D03*
X74861142Y-55593140D03*
X74861142Y-52393140D03*
G04 #@! TD*
D15*
G04 #@! TO.C,J2*
X33006760Y-18634571D03*
D16*
X48246760Y-18634571D03*
D15*
X38086760Y-18634571D03*
X43166760Y-18634571D03*
G04 #@! TD*
D17*
G04 #@! TO.C,C5*
X31359328Y-36546869D03*
X33859328Y-36546869D03*
G04 #@! TD*
G04 #@! TO.C,C4*
X33859328Y-33546869D03*
X31359328Y-33546869D03*
G04 #@! TD*
G04 #@! TO.C,C3*
X31359328Y-30546869D03*
X33859328Y-30546869D03*
G04 #@! TD*
G04 #@! TO.C,C2*
X33859328Y-27296869D03*
X31359328Y-27296869D03*
G04 #@! TD*
G04 #@! TO.C,C1*
X31359328Y-24046869D03*
X33859328Y-24046869D03*
G04 #@! TD*
D18*
G04 #@! TO.C,ZD2*
X45846760Y-24384571D03*
X48646760Y-24384571D03*
G04 #@! TD*
G04 #@! TO.C,ZD1*
X36746760Y-35684571D03*
X36746760Y-32884571D03*
G04 #@! TD*
D19*
G04 #@! TO.C,LD_O1*
X42496760Y-31884571D03*
X45196760Y-31884571D03*
G04 #@! TD*
G04 #@! TO.C,LD_G1*
X45246760Y-34634571D03*
X42546760Y-34634571D03*
G04 #@! TD*
G04 #@! TO.C,R2*
X42496760Y-29134571D03*
X45196760Y-29134571D03*
G04 #@! TD*
G04 #@! TO.C,R1*
X45246760Y-37134571D03*
X42546760Y-37134571D03*
G04 #@! TD*
D20*
G04 #@! TO.C,U1*
X45846760Y-41684571D03*
X45846760Y-43584571D03*
X43146760Y-43584571D03*
X43146760Y-42634571D03*
X43146760Y-41684571D03*
G04 #@! TD*
D21*
G04 #@! TO.C,J1*
X37576760Y-43884571D03*
X35036760Y-43884571D03*
D22*
X32496760Y-43884571D03*
G04 #@! TD*
M02*
