G04 #@! TF.GenerationSoftware,KiCad,Pcbnew,5.0.0-fee4fd1~66~ubuntu18.04.1*
G04 #@! TF.CreationDate,2018-10-07T19:31:30+08:00*
G04 #@! TF.ProjectId,ws2812-stm32-interface,7773323831322D73746D33322D696E74,rev?*
G04 #@! TF.SameCoordinates,Original*
G04 #@! TF.FileFunction,Copper,L1,Top,Signal*
G04 #@! TF.FilePolarity,Positive*
%FSLAX46Y46*%
G04 Gerber Fmt 4.6, Leading zero omitted, Abs format (unit mm)*
G04 Created by KiCad (PCBNEW 5.0.0-fee4fd1~66~ubuntu18.04.1) date Sun Oct  7 19:31:30 2018*
%MOMM*%
%LPD*%
G01*
G04 APERTURE LIST*
G04 #@! TA.AperFunction,ComponentPad*
%ADD10C,3.000000*%
G04 #@! TD*
G04 #@! TA.AperFunction,ComponentPad*
%ADD11R,3.000000X3.000000*%
G04 #@! TD*
G04 #@! TA.AperFunction,SMDPad,CuDef*
%ADD12R,1.250000X1.500000*%
G04 #@! TD*
G04 #@! TA.AperFunction,SMDPad,CuDef*
%ADD13R,1.100000X1.100000*%
G04 #@! TD*
G04 #@! TA.AperFunction,SMDPad,CuDef*
%ADD14R,1.300000X1.500000*%
G04 #@! TD*
G04 #@! TA.AperFunction,SMDPad,CuDef*
%ADD15R,0.650000X1.560000*%
G04 #@! TD*
G04 #@! TA.AperFunction,ComponentPad*
%ADD16O,1.700000X2.540000*%
G04 #@! TD*
G04 #@! TA.AperFunction,ComponentPad*
%ADD17R,1.700000X2.500000*%
G04 #@! TD*
G04 #@! TA.AperFunction,ViaPad*
%ADD18C,2.000000*%
G04 #@! TD*
G04 #@! TA.AperFunction,ViaPad*
%ADD19C,0.800000*%
G04 #@! TD*
G04 #@! TA.AperFunction,ViaPad*
%ADD20C,1.200000*%
G04 #@! TD*
G04 #@! TA.AperFunction,Conductor*
%ADD21C,0.500000*%
G04 #@! TD*
G04 #@! TA.AperFunction,Conductor*
%ADD22C,1.000000*%
G04 #@! TD*
G04 #@! TA.AperFunction,Conductor*
%ADD23C,0.250000*%
G04 #@! TD*
G04 #@! TA.AperFunction,Conductor*
%ADD24C,0.254000*%
G04 #@! TD*
G04 APERTURE END LIST*
D10*
G04 #@! TO.P,J2,4*
G04 #@! TO.N,GND*
X48250000Y-15760000D03*
D11*
G04 #@! TO.P,J2,1*
G04 #@! TO.N,V_EXT_LED*
X48250000Y-31000000D03*
D10*
G04 #@! TO.P,J2,3*
G04 #@! TO.N,/PWM_TO_LED*
X48250000Y-20840000D03*
G04 #@! TO.P,J2,2*
G04 #@! TO.N,VCC*
X48250000Y-25920000D03*
G04 #@! TD*
D12*
G04 #@! TO.P,C5,2*
G04 #@! TO.N,GND*
X30337702Y-14112568D03*
G04 #@! TO.P,C5,1*
G04 #@! TO.N,VCC*
X30337702Y-16612568D03*
G04 #@! TD*
G04 #@! TO.P,C4,1*
G04 #@! TO.N,VCC*
X33337702Y-16612568D03*
G04 #@! TO.P,C4,2*
G04 #@! TO.N,GND*
X33337702Y-14112568D03*
G04 #@! TD*
G04 #@! TO.P,C3,2*
G04 #@! TO.N,GND*
X36337702Y-14112568D03*
G04 #@! TO.P,C3,1*
G04 #@! TO.N,VCC*
X36337702Y-16612568D03*
G04 #@! TD*
G04 #@! TO.P,C2,1*
G04 #@! TO.N,VCC*
X39587702Y-16612568D03*
G04 #@! TO.P,C2,2*
G04 #@! TO.N,GND*
X39587702Y-14112568D03*
G04 #@! TD*
G04 #@! TO.P,C1,2*
G04 #@! TO.N,GND*
X42837702Y-14112568D03*
G04 #@! TO.P,C1,1*
G04 #@! TO.N,VCC*
X42837702Y-16612568D03*
G04 #@! TD*
D13*
G04 #@! TO.P,D2,1*
G04 #@! TO.N,VCC*
X37850000Y-19500000D03*
G04 #@! TO.P,D2,2*
G04 #@! TO.N,V_EXT_LED*
X40650000Y-19500000D03*
G04 #@! TD*
G04 #@! TO.P,D1,2*
G04 #@! TO.N,+5V*
X31200000Y-19500000D03*
G04 #@! TO.P,D1,1*
G04 #@! TO.N,VCC*
X34000000Y-19500000D03*
G04 #@! TD*
D14*
G04 #@! TO.P,D4,1*
G04 #@! TO.N,GND*
X35000000Y-25250000D03*
G04 #@! TO.P,D4,2*
G04 #@! TO.N,Net-(D4-Pad2)*
X35000000Y-27950000D03*
G04 #@! TD*
G04 #@! TO.P,D3,2*
G04 #@! TO.N,Net-(D3-Pad2)*
X32250000Y-28000000D03*
G04 #@! TO.P,D3,1*
G04 #@! TO.N,GND*
X32250000Y-25300000D03*
G04 #@! TD*
G04 #@! TO.P,R2,1*
G04 #@! TO.N,VCC*
X37750000Y-25250000D03*
G04 #@! TO.P,R2,2*
G04 #@! TO.N,Net-(D4-Pad2)*
X37750000Y-27950000D03*
G04 #@! TD*
G04 #@! TO.P,R1,2*
G04 #@! TO.N,Net-(D3-Pad2)*
X29750000Y-28000000D03*
G04 #@! TO.P,R1,1*
G04 #@! TO.N,+5V*
X29750000Y-25300000D03*
G04 #@! TD*
D15*
G04 #@! TO.P,U1,5*
G04 #@! TO.N,VCC*
X25200000Y-23100000D03*
G04 #@! TO.P,U1,4*
G04 #@! TO.N,/PWM_TO_LED*
X23300000Y-23100000D03*
G04 #@! TO.P,U1,3*
G04 #@! TO.N,GND*
X23300000Y-20400000D03*
G04 #@! TO.P,U1,2*
G04 #@! TO.N,/MCU_LED_PWM*
X24250000Y-20400000D03*
G04 #@! TO.P,U1,1*
G04 #@! TO.N,GND*
X25200000Y-20400000D03*
G04 #@! TD*
D16*
G04 #@! TO.P,J1,3*
G04 #@! TO.N,/MCU_LED_PWM*
X21920000Y-15000000D03*
G04 #@! TO.P,J1,2*
G04 #@! TO.N,+5V*
X24460000Y-15000000D03*
D17*
G04 #@! TO.P,J1,1*
G04 #@! TO.N,GND*
X27000000Y-15000000D03*
G04 #@! TD*
D18*
G04 #@! TO.N,+5V*
X29000000Y-20500000D03*
G04 #@! TO.N,GND*
X31250000Y-22750000D03*
X21250000Y-20500000D03*
D19*
X40500000Y-23000000D03*
D20*
G04 #@! TO.N,/PWM_TO_LED*
X23250000Y-26750000D03*
G04 #@! TD*
D21*
G04 #@! TO.N,/MCU_LED_PWM*
X21920000Y-15000000D02*
X21920000Y-16670000D01*
X21920000Y-16670000D02*
X23250000Y-18000000D01*
X23250000Y-18000000D02*
X23750000Y-18000000D01*
X24250000Y-18500000D02*
X24250000Y-20400000D01*
X23750000Y-18000000D02*
X24250000Y-18500000D01*
D22*
G04 #@! TO.N,+5V*
X30200000Y-20500000D02*
X31200000Y-19500000D01*
X29000000Y-20500000D02*
X30200000Y-20500000D01*
X29000000Y-24550000D02*
X29750000Y-25300000D01*
X29000000Y-20500000D02*
X29000000Y-24550000D01*
G04 #@! TO.N,GND*
X30337702Y-14112568D02*
X33337702Y-14112568D01*
X33337702Y-14112568D02*
X36337702Y-14112568D01*
X36337702Y-14112568D02*
X39587702Y-14112568D01*
X39587702Y-14112568D02*
X42837702Y-14112568D01*
X46602568Y-14112568D02*
X48250000Y-15760000D01*
X42837702Y-14112568D02*
X46602568Y-14112568D01*
X27887432Y-14112568D02*
X27000000Y-15000000D01*
X30337702Y-14112568D02*
X27887432Y-14112568D01*
D21*
X25275001Y-18724999D02*
X25275001Y-20400000D01*
D22*
X27000000Y-15000000D02*
X27000000Y-17000000D01*
X27000000Y-17000000D02*
X25275001Y-18724999D01*
X34950000Y-25300000D02*
X35000000Y-25250000D01*
X32250000Y-25300000D02*
X34950000Y-25300000D01*
X32250000Y-25300000D02*
X32250000Y-23750000D01*
X32250000Y-23750000D02*
X31250000Y-22750000D01*
X21250000Y-20500000D02*
X22750000Y-20500000D01*
D21*
X23124999Y-20500000D02*
X23224999Y-20400000D01*
D22*
X21250000Y-20500000D02*
X23124999Y-20500000D01*
G04 #@! TO.N,VCC*
X30337702Y-16612568D02*
X33337702Y-16612568D01*
X33337702Y-16612568D02*
X36337702Y-16612568D01*
X36337702Y-16612568D02*
X39587702Y-16612568D01*
X39587702Y-16612568D02*
X42837702Y-16612568D01*
X29887432Y-16612568D02*
X30337702Y-16612568D01*
X27000000Y-19500000D02*
X29887432Y-16612568D01*
X27000000Y-22500000D02*
X27000000Y-19500000D01*
X25200000Y-23100000D02*
X26400000Y-23100000D01*
X26400000Y-23100000D02*
X27000000Y-22500000D01*
X34000000Y-19500000D02*
X37350000Y-19500000D01*
X48250000Y-25920000D02*
X40670000Y-25920000D01*
X40000000Y-25250000D02*
X38750000Y-25250000D01*
X40000000Y-25250000D02*
X40670000Y-25920000D01*
X37750000Y-25250000D02*
X40000000Y-25250000D01*
X37750000Y-19600000D02*
X37850000Y-19500000D01*
X37750000Y-25250000D02*
X37750000Y-19600000D01*
X34000000Y-17274866D02*
X33337702Y-16612568D01*
X34000000Y-19500000D02*
X34000000Y-17274866D01*
D21*
G04 #@! TO.N,/PWM_TO_LED*
X23300000Y-26700000D02*
X23250000Y-26750000D01*
X23300000Y-23100000D02*
X23300000Y-26700000D01*
D23*
G04 #@! TO.N,Net-(D3-Pad2)*
X29750000Y-28000000D02*
X32250000Y-28000000D01*
G04 #@! TO.N,Net-(D4-Pad2)*
X35000000Y-27950000D02*
X37750000Y-27950000D01*
D22*
G04 #@! TO.N,V_EXT_LED*
X40150000Y-19500000D02*
X44250000Y-19500000D01*
X44250000Y-19500000D02*
X45500000Y-18250000D01*
X45500000Y-18250000D02*
X50250000Y-18250000D01*
X50250000Y-18250000D02*
X51250000Y-19250000D01*
X51250000Y-28000000D02*
X48250000Y-31000000D01*
X51250000Y-19250000D02*
X51250000Y-28000000D01*
G04 #@! TD*
D24*
G04 #@! TO.N,GND*
G36*
X20521161Y-15999417D02*
X20849375Y-16490625D01*
X21029414Y-16610923D01*
X21017663Y-16670000D01*
X21086348Y-17015309D01*
X21232576Y-17234154D01*
X21232578Y-17234156D01*
X21281952Y-17308049D01*
X21355845Y-17357423D01*
X22562577Y-18564156D01*
X22611951Y-18638049D01*
X22685844Y-18687423D01*
X22685845Y-18687424D01*
X22741586Y-18724669D01*
X22904690Y-18833652D01*
X23162835Y-18885000D01*
X23162840Y-18885000D01*
X23249999Y-18902337D01*
X23337159Y-18885000D01*
X23365000Y-18885000D01*
X23365000Y-19315129D01*
X23326843Y-19372235D01*
X23277560Y-19620000D01*
X23277560Y-20547000D01*
X23173000Y-20547000D01*
X23173000Y-20527000D01*
X22498750Y-20527000D01*
X22340000Y-20685750D01*
X22340000Y-21306309D01*
X22436673Y-21539698D01*
X22615301Y-21718327D01*
X22687648Y-21748294D01*
X22517191Y-21862191D01*
X22376843Y-22072235D01*
X22327560Y-22320000D01*
X22327560Y-23880000D01*
X22376843Y-24127765D01*
X22415000Y-24184871D01*
X22415001Y-25838446D01*
X22203018Y-26050429D01*
X22015000Y-26504343D01*
X22015000Y-26995657D01*
X22203018Y-27449571D01*
X22550429Y-27796982D01*
X23004343Y-27985000D01*
X23495657Y-27985000D01*
X23949571Y-27796982D01*
X24296982Y-27449571D01*
X24485000Y-26995657D01*
X24485000Y-26504343D01*
X24296982Y-26050429D01*
X24185000Y-25938447D01*
X24185000Y-24184871D01*
X24223157Y-24127765D01*
X24250000Y-23992815D01*
X24276843Y-24127765D01*
X24417191Y-24337809D01*
X24627235Y-24478157D01*
X24875000Y-24527440D01*
X25525000Y-24527440D01*
X25772765Y-24478157D01*
X25982809Y-24337809D01*
X26051504Y-24235000D01*
X26288217Y-24235000D01*
X26400000Y-24257235D01*
X26511783Y-24235000D01*
X26842855Y-24169146D01*
X27218289Y-23918289D01*
X27281613Y-23823518D01*
X27723519Y-23381612D01*
X27818289Y-23318289D01*
X27865001Y-23248380D01*
X27865001Y-24438212D01*
X27842765Y-24550000D01*
X27930854Y-24992854D01*
X27996085Y-25090478D01*
X28181712Y-25368289D01*
X28276479Y-25431611D01*
X28452560Y-25607691D01*
X28452560Y-26050000D01*
X28501843Y-26297765D01*
X28642191Y-26507809D01*
X28852235Y-26648157D01*
X28861500Y-26650000D01*
X28852235Y-26651843D01*
X28642191Y-26792191D01*
X28501843Y-27002235D01*
X28452560Y-27250000D01*
X28452560Y-28750000D01*
X28501843Y-28997765D01*
X28642191Y-29207809D01*
X28852235Y-29348157D01*
X29100000Y-29397440D01*
X30400000Y-29397440D01*
X30647765Y-29348157D01*
X30857809Y-29207809D01*
X30998157Y-28997765D01*
X31000000Y-28988500D01*
X31001843Y-28997765D01*
X31142191Y-29207809D01*
X31352235Y-29348157D01*
X31600000Y-29397440D01*
X32900000Y-29397440D01*
X33147765Y-29348157D01*
X33357809Y-29207809D01*
X33498157Y-28997765D01*
X33547440Y-28750000D01*
X33547440Y-27250000D01*
X33498157Y-27002235D01*
X33357809Y-26792191D01*
X33147765Y-26651843D01*
X33119791Y-26646279D01*
X33259699Y-26588327D01*
X33438327Y-26409698D01*
X33535000Y-26176309D01*
X33535000Y-25585750D01*
X33376250Y-25427000D01*
X32377000Y-25427000D01*
X32377000Y-25447000D01*
X32123000Y-25447000D01*
X32123000Y-25427000D01*
X32103000Y-25427000D01*
X32103000Y-25173000D01*
X32123000Y-25173000D01*
X32123000Y-24073750D01*
X32377000Y-24073750D01*
X32377000Y-25173000D01*
X33376250Y-25173000D01*
X33535000Y-25014250D01*
X33535000Y-24423691D01*
X33514290Y-24373691D01*
X33715000Y-24373691D01*
X33715000Y-24964250D01*
X33873750Y-25123000D01*
X34873000Y-25123000D01*
X34873000Y-24023750D01*
X35127000Y-24023750D01*
X35127000Y-25123000D01*
X36126250Y-25123000D01*
X36285000Y-24964250D01*
X36285000Y-24373691D01*
X36188327Y-24140302D01*
X36009699Y-23961673D01*
X35776310Y-23865000D01*
X35285750Y-23865000D01*
X35127000Y-24023750D01*
X34873000Y-24023750D01*
X34714250Y-23865000D01*
X34223690Y-23865000D01*
X33990301Y-23961673D01*
X33811673Y-24140302D01*
X33715000Y-24373691D01*
X33514290Y-24373691D01*
X33438327Y-24190302D01*
X33259699Y-24011673D01*
X33026310Y-23915000D01*
X32535750Y-23915000D01*
X32377000Y-24073750D01*
X32123000Y-24073750D01*
X31964250Y-23915000D01*
X31473690Y-23915000D01*
X31240301Y-24011673D01*
X31061673Y-24190302D01*
X31003721Y-24330209D01*
X30998157Y-24302235D01*
X30857809Y-24092191D01*
X30647765Y-23951843D01*
X30400000Y-23902560D01*
X30135000Y-23902560D01*
X30135000Y-21677239D01*
X30162469Y-21649770D01*
X30200000Y-21657235D01*
X30311783Y-21635000D01*
X30642855Y-21569146D01*
X31018289Y-21318289D01*
X31081612Y-21223519D01*
X31607692Y-20697440D01*
X31750000Y-20697440D01*
X31997765Y-20648157D01*
X32207809Y-20507809D01*
X32348157Y-20297765D01*
X32397440Y-20050000D01*
X32397440Y-18950000D01*
X32348157Y-18702235D01*
X32207809Y-18492191D01*
X31997765Y-18351843D01*
X31750000Y-18302560D01*
X30650000Y-18302560D01*
X30402235Y-18351843D01*
X30192191Y-18492191D01*
X30051843Y-18702235D01*
X30002560Y-18950000D01*
X30002560Y-19092308D01*
X29953553Y-19141314D01*
X29926153Y-19113914D01*
X29325222Y-18865000D01*
X29240132Y-18865000D01*
X30095125Y-18010008D01*
X30962702Y-18010008D01*
X31210467Y-17960725D01*
X31420511Y-17820377D01*
X31469161Y-17747568D01*
X32206243Y-17747568D01*
X32254893Y-17820377D01*
X32464937Y-17960725D01*
X32712702Y-18010008D01*
X32865001Y-18010008D01*
X32865000Y-18682544D01*
X32851843Y-18702235D01*
X32802560Y-18950000D01*
X32802560Y-20050000D01*
X32851843Y-20297765D01*
X32992191Y-20507809D01*
X33202235Y-20648157D01*
X33450000Y-20697440D01*
X34550000Y-20697440D01*
X34797765Y-20648157D01*
X34817456Y-20635000D01*
X36615001Y-20635000D01*
X36615000Y-24082885D01*
X36501843Y-24252235D01*
X36452560Y-24500000D01*
X36452560Y-26000000D01*
X36501843Y-26247765D01*
X36642191Y-26457809D01*
X36852235Y-26598157D01*
X36861500Y-26600000D01*
X36852235Y-26601843D01*
X36642191Y-26742191D01*
X36501843Y-26952235D01*
X36454549Y-27190000D01*
X36295451Y-27190000D01*
X36248157Y-26952235D01*
X36107809Y-26742191D01*
X35897765Y-26601843D01*
X35869791Y-26596279D01*
X36009699Y-26538327D01*
X36188327Y-26359698D01*
X36285000Y-26126309D01*
X36285000Y-25535750D01*
X36126250Y-25377000D01*
X35127000Y-25377000D01*
X35127000Y-25397000D01*
X34873000Y-25397000D01*
X34873000Y-25377000D01*
X33873750Y-25377000D01*
X33715000Y-25535750D01*
X33715000Y-26126309D01*
X33811673Y-26359698D01*
X33990301Y-26538327D01*
X34130209Y-26596279D01*
X34102235Y-26601843D01*
X33892191Y-26742191D01*
X33751843Y-26952235D01*
X33702560Y-27200000D01*
X33702560Y-28700000D01*
X33751843Y-28947765D01*
X33892191Y-29157809D01*
X34102235Y-29298157D01*
X34350000Y-29347440D01*
X35650000Y-29347440D01*
X35897765Y-29298157D01*
X36107809Y-29157809D01*
X36248157Y-28947765D01*
X36295451Y-28710000D01*
X36454549Y-28710000D01*
X36501843Y-28947765D01*
X36642191Y-29157809D01*
X36852235Y-29298157D01*
X37100000Y-29347440D01*
X38400000Y-29347440D01*
X38647765Y-29298157D01*
X38857809Y-29157809D01*
X38998157Y-28947765D01*
X39047440Y-28700000D01*
X39047440Y-27200000D01*
X38998157Y-26952235D01*
X38857809Y-26742191D01*
X38647765Y-26601843D01*
X38638500Y-26600000D01*
X38647765Y-26598157D01*
X38857809Y-26457809D01*
X38906459Y-26385000D01*
X39529869Y-26385000D01*
X39788387Y-26643518D01*
X39851711Y-26738289D01*
X40171904Y-26952235D01*
X40227145Y-26989146D01*
X40669999Y-27077235D01*
X40781782Y-27055000D01*
X46409225Y-27055000D01*
X46440034Y-27129380D01*
X47040620Y-27729966D01*
X47825322Y-28055000D01*
X48674678Y-28055000D01*
X49459380Y-27729966D01*
X50059966Y-27129380D01*
X50115001Y-26996514D01*
X50115001Y-27529867D01*
X48792309Y-28852560D01*
X46750000Y-28852560D01*
X46502235Y-28901843D01*
X46292191Y-29042191D01*
X46151843Y-29252235D01*
X46102560Y-29500000D01*
X46102560Y-32500000D01*
X46151843Y-32747765D01*
X46292191Y-32957809D01*
X46502235Y-33098157D01*
X46750000Y-33147440D01*
X49750000Y-33147440D01*
X49997765Y-33098157D01*
X50207809Y-32957809D01*
X50348157Y-32747765D01*
X50397440Y-32500000D01*
X50397440Y-30457691D01*
X51973521Y-28881611D01*
X52040000Y-28837191D01*
X52040000Y-33290000D01*
X20460000Y-33290000D01*
X20460000Y-19493691D01*
X22340000Y-19493691D01*
X22340000Y-20114250D01*
X22498750Y-20273000D01*
X23173000Y-20273000D01*
X23173000Y-19143750D01*
X23014250Y-18985000D01*
X22848690Y-18985000D01*
X22615301Y-19081673D01*
X22436673Y-19260302D01*
X22340000Y-19493691D01*
X20460000Y-19493691D01*
X20460000Y-15691939D01*
X20521161Y-15999417D01*
X20521161Y-15999417D01*
G37*
X20521161Y-15999417D02*
X20849375Y-16490625D01*
X21029414Y-16610923D01*
X21017663Y-16670000D01*
X21086348Y-17015309D01*
X21232576Y-17234154D01*
X21232578Y-17234156D01*
X21281952Y-17308049D01*
X21355845Y-17357423D01*
X22562577Y-18564156D01*
X22611951Y-18638049D01*
X22685844Y-18687423D01*
X22685845Y-18687424D01*
X22741586Y-18724669D01*
X22904690Y-18833652D01*
X23162835Y-18885000D01*
X23162840Y-18885000D01*
X23249999Y-18902337D01*
X23337159Y-18885000D01*
X23365000Y-18885000D01*
X23365000Y-19315129D01*
X23326843Y-19372235D01*
X23277560Y-19620000D01*
X23277560Y-20547000D01*
X23173000Y-20547000D01*
X23173000Y-20527000D01*
X22498750Y-20527000D01*
X22340000Y-20685750D01*
X22340000Y-21306309D01*
X22436673Y-21539698D01*
X22615301Y-21718327D01*
X22687648Y-21748294D01*
X22517191Y-21862191D01*
X22376843Y-22072235D01*
X22327560Y-22320000D01*
X22327560Y-23880000D01*
X22376843Y-24127765D01*
X22415000Y-24184871D01*
X22415001Y-25838446D01*
X22203018Y-26050429D01*
X22015000Y-26504343D01*
X22015000Y-26995657D01*
X22203018Y-27449571D01*
X22550429Y-27796982D01*
X23004343Y-27985000D01*
X23495657Y-27985000D01*
X23949571Y-27796982D01*
X24296982Y-27449571D01*
X24485000Y-26995657D01*
X24485000Y-26504343D01*
X24296982Y-26050429D01*
X24185000Y-25938447D01*
X24185000Y-24184871D01*
X24223157Y-24127765D01*
X24250000Y-23992815D01*
X24276843Y-24127765D01*
X24417191Y-24337809D01*
X24627235Y-24478157D01*
X24875000Y-24527440D01*
X25525000Y-24527440D01*
X25772765Y-24478157D01*
X25982809Y-24337809D01*
X26051504Y-24235000D01*
X26288217Y-24235000D01*
X26400000Y-24257235D01*
X26511783Y-24235000D01*
X26842855Y-24169146D01*
X27218289Y-23918289D01*
X27281613Y-23823518D01*
X27723519Y-23381612D01*
X27818289Y-23318289D01*
X27865001Y-23248380D01*
X27865001Y-24438212D01*
X27842765Y-24550000D01*
X27930854Y-24992854D01*
X27996085Y-25090478D01*
X28181712Y-25368289D01*
X28276479Y-25431611D01*
X28452560Y-25607691D01*
X28452560Y-26050000D01*
X28501843Y-26297765D01*
X28642191Y-26507809D01*
X28852235Y-26648157D01*
X28861500Y-26650000D01*
X28852235Y-26651843D01*
X28642191Y-26792191D01*
X28501843Y-27002235D01*
X28452560Y-27250000D01*
X28452560Y-28750000D01*
X28501843Y-28997765D01*
X28642191Y-29207809D01*
X28852235Y-29348157D01*
X29100000Y-29397440D01*
X30400000Y-29397440D01*
X30647765Y-29348157D01*
X30857809Y-29207809D01*
X30998157Y-28997765D01*
X31000000Y-28988500D01*
X31001843Y-28997765D01*
X31142191Y-29207809D01*
X31352235Y-29348157D01*
X31600000Y-29397440D01*
X32900000Y-29397440D01*
X33147765Y-29348157D01*
X33357809Y-29207809D01*
X33498157Y-28997765D01*
X33547440Y-28750000D01*
X33547440Y-27250000D01*
X33498157Y-27002235D01*
X33357809Y-26792191D01*
X33147765Y-26651843D01*
X33119791Y-26646279D01*
X33259699Y-26588327D01*
X33438327Y-26409698D01*
X33535000Y-26176309D01*
X33535000Y-25585750D01*
X33376250Y-25427000D01*
X32377000Y-25427000D01*
X32377000Y-25447000D01*
X32123000Y-25447000D01*
X32123000Y-25427000D01*
X32103000Y-25427000D01*
X32103000Y-25173000D01*
X32123000Y-25173000D01*
X32123000Y-24073750D01*
X32377000Y-24073750D01*
X32377000Y-25173000D01*
X33376250Y-25173000D01*
X33535000Y-25014250D01*
X33535000Y-24423691D01*
X33514290Y-24373691D01*
X33715000Y-24373691D01*
X33715000Y-24964250D01*
X33873750Y-25123000D01*
X34873000Y-25123000D01*
X34873000Y-24023750D01*
X35127000Y-24023750D01*
X35127000Y-25123000D01*
X36126250Y-25123000D01*
X36285000Y-24964250D01*
X36285000Y-24373691D01*
X36188327Y-24140302D01*
X36009699Y-23961673D01*
X35776310Y-23865000D01*
X35285750Y-23865000D01*
X35127000Y-24023750D01*
X34873000Y-24023750D01*
X34714250Y-23865000D01*
X34223690Y-23865000D01*
X33990301Y-23961673D01*
X33811673Y-24140302D01*
X33715000Y-24373691D01*
X33514290Y-24373691D01*
X33438327Y-24190302D01*
X33259699Y-24011673D01*
X33026310Y-23915000D01*
X32535750Y-23915000D01*
X32377000Y-24073750D01*
X32123000Y-24073750D01*
X31964250Y-23915000D01*
X31473690Y-23915000D01*
X31240301Y-24011673D01*
X31061673Y-24190302D01*
X31003721Y-24330209D01*
X30998157Y-24302235D01*
X30857809Y-24092191D01*
X30647765Y-23951843D01*
X30400000Y-23902560D01*
X30135000Y-23902560D01*
X30135000Y-21677239D01*
X30162469Y-21649770D01*
X30200000Y-21657235D01*
X30311783Y-21635000D01*
X30642855Y-21569146D01*
X31018289Y-21318289D01*
X31081612Y-21223519D01*
X31607692Y-20697440D01*
X31750000Y-20697440D01*
X31997765Y-20648157D01*
X32207809Y-20507809D01*
X32348157Y-20297765D01*
X32397440Y-20050000D01*
X32397440Y-18950000D01*
X32348157Y-18702235D01*
X32207809Y-18492191D01*
X31997765Y-18351843D01*
X31750000Y-18302560D01*
X30650000Y-18302560D01*
X30402235Y-18351843D01*
X30192191Y-18492191D01*
X30051843Y-18702235D01*
X30002560Y-18950000D01*
X30002560Y-19092308D01*
X29953553Y-19141314D01*
X29926153Y-19113914D01*
X29325222Y-18865000D01*
X29240132Y-18865000D01*
X30095125Y-18010008D01*
X30962702Y-18010008D01*
X31210467Y-17960725D01*
X31420511Y-17820377D01*
X31469161Y-17747568D01*
X32206243Y-17747568D01*
X32254893Y-17820377D01*
X32464937Y-17960725D01*
X32712702Y-18010008D01*
X32865001Y-18010008D01*
X32865000Y-18682544D01*
X32851843Y-18702235D01*
X32802560Y-18950000D01*
X32802560Y-20050000D01*
X32851843Y-20297765D01*
X32992191Y-20507809D01*
X33202235Y-20648157D01*
X33450000Y-20697440D01*
X34550000Y-20697440D01*
X34797765Y-20648157D01*
X34817456Y-20635000D01*
X36615001Y-20635000D01*
X36615000Y-24082885D01*
X36501843Y-24252235D01*
X36452560Y-24500000D01*
X36452560Y-26000000D01*
X36501843Y-26247765D01*
X36642191Y-26457809D01*
X36852235Y-26598157D01*
X36861500Y-26600000D01*
X36852235Y-26601843D01*
X36642191Y-26742191D01*
X36501843Y-26952235D01*
X36454549Y-27190000D01*
X36295451Y-27190000D01*
X36248157Y-26952235D01*
X36107809Y-26742191D01*
X35897765Y-26601843D01*
X35869791Y-26596279D01*
X36009699Y-26538327D01*
X36188327Y-26359698D01*
X36285000Y-26126309D01*
X36285000Y-25535750D01*
X36126250Y-25377000D01*
X35127000Y-25377000D01*
X35127000Y-25397000D01*
X34873000Y-25397000D01*
X34873000Y-25377000D01*
X33873750Y-25377000D01*
X33715000Y-25535750D01*
X33715000Y-26126309D01*
X33811673Y-26359698D01*
X33990301Y-26538327D01*
X34130209Y-26596279D01*
X34102235Y-26601843D01*
X33892191Y-26742191D01*
X33751843Y-26952235D01*
X33702560Y-27200000D01*
X33702560Y-28700000D01*
X33751843Y-28947765D01*
X33892191Y-29157809D01*
X34102235Y-29298157D01*
X34350000Y-29347440D01*
X35650000Y-29347440D01*
X35897765Y-29298157D01*
X36107809Y-29157809D01*
X36248157Y-28947765D01*
X36295451Y-28710000D01*
X36454549Y-28710000D01*
X36501843Y-28947765D01*
X36642191Y-29157809D01*
X36852235Y-29298157D01*
X37100000Y-29347440D01*
X38400000Y-29347440D01*
X38647765Y-29298157D01*
X38857809Y-29157809D01*
X38998157Y-28947765D01*
X39047440Y-28700000D01*
X39047440Y-27200000D01*
X38998157Y-26952235D01*
X38857809Y-26742191D01*
X38647765Y-26601843D01*
X38638500Y-26600000D01*
X38647765Y-26598157D01*
X38857809Y-26457809D01*
X38906459Y-26385000D01*
X39529869Y-26385000D01*
X39788387Y-26643518D01*
X39851711Y-26738289D01*
X40171904Y-26952235D01*
X40227145Y-26989146D01*
X40669999Y-27077235D01*
X40781782Y-27055000D01*
X46409225Y-27055000D01*
X46440034Y-27129380D01*
X47040620Y-27729966D01*
X47825322Y-28055000D01*
X48674678Y-28055000D01*
X49459380Y-27729966D01*
X50059966Y-27129380D01*
X50115001Y-26996514D01*
X50115001Y-27529867D01*
X48792309Y-28852560D01*
X46750000Y-28852560D01*
X46502235Y-28901843D01*
X46292191Y-29042191D01*
X46151843Y-29252235D01*
X46102560Y-29500000D01*
X46102560Y-32500000D01*
X46151843Y-32747765D01*
X46292191Y-32957809D01*
X46502235Y-33098157D01*
X46750000Y-33147440D01*
X49750000Y-33147440D01*
X49997765Y-33098157D01*
X50207809Y-32957809D01*
X50348157Y-32747765D01*
X50397440Y-32500000D01*
X50397440Y-30457691D01*
X51973521Y-28881611D01*
X52040000Y-28837191D01*
X52040000Y-33290000D01*
X20460000Y-33290000D01*
X20460000Y-19493691D01*
X22340000Y-19493691D01*
X22340000Y-20114250D01*
X22498750Y-20273000D01*
X23173000Y-20273000D01*
X23173000Y-19143750D01*
X23014250Y-18985000D01*
X22848690Y-18985000D01*
X22615301Y-19081673D01*
X22436673Y-19260302D01*
X22340000Y-19493691D01*
X20460000Y-19493691D01*
X20460000Y-15691939D01*
X20521161Y-15999417D01*
G36*
X46440034Y-19630620D02*
X46115000Y-20415322D01*
X46115000Y-21264678D01*
X46440034Y-22049380D01*
X47040620Y-22649966D01*
X47825322Y-22975000D01*
X48674678Y-22975000D01*
X49459380Y-22649966D01*
X50059966Y-22049380D01*
X50115000Y-21916515D01*
X50115001Y-24843485D01*
X50059966Y-24710620D01*
X49459380Y-24110034D01*
X48674678Y-23785000D01*
X47825322Y-23785000D01*
X47040620Y-24110034D01*
X46440034Y-24710620D01*
X46409225Y-24785000D01*
X41140131Y-24785000D01*
X40881613Y-24526482D01*
X40818289Y-24431711D01*
X40442855Y-24180854D01*
X40111783Y-24115000D01*
X40000000Y-24092765D01*
X39888217Y-24115000D01*
X38906459Y-24115000D01*
X38885000Y-24082885D01*
X38885000Y-20467115D01*
X38998157Y-20297765D01*
X39047440Y-20050000D01*
X39047440Y-19774871D01*
X39080854Y-19942855D01*
X39331711Y-20318289D01*
X39707145Y-20569146D01*
X39745365Y-20576748D01*
X39852235Y-20648157D01*
X40100000Y-20697440D01*
X41200000Y-20697440D01*
X41447765Y-20648157D01*
X41467456Y-20635000D01*
X44138217Y-20635000D01*
X44250000Y-20657235D01*
X44361783Y-20635000D01*
X44692855Y-20569146D01*
X45068289Y-20318289D01*
X45131613Y-20223518D01*
X45970132Y-19385000D01*
X46685654Y-19385000D01*
X46440034Y-19630620D01*
X46440034Y-19630620D01*
G37*
X46440034Y-19630620D02*
X46115000Y-20415322D01*
X46115000Y-21264678D01*
X46440034Y-22049380D01*
X47040620Y-22649966D01*
X47825322Y-22975000D01*
X48674678Y-22975000D01*
X49459380Y-22649966D01*
X50059966Y-22049380D01*
X50115000Y-21916515D01*
X50115001Y-24843485D01*
X50059966Y-24710620D01*
X49459380Y-24110034D01*
X48674678Y-23785000D01*
X47825322Y-23785000D01*
X47040620Y-24110034D01*
X46440034Y-24710620D01*
X46409225Y-24785000D01*
X41140131Y-24785000D01*
X40881613Y-24526482D01*
X40818289Y-24431711D01*
X40442855Y-24180854D01*
X40111783Y-24115000D01*
X40000000Y-24092765D01*
X39888217Y-24115000D01*
X38906459Y-24115000D01*
X38885000Y-24082885D01*
X38885000Y-20467115D01*
X38998157Y-20297765D01*
X39047440Y-20050000D01*
X39047440Y-19774871D01*
X39080854Y-19942855D01*
X39331711Y-20318289D01*
X39707145Y-20569146D01*
X39745365Y-20576748D01*
X39852235Y-20648157D01*
X40100000Y-20697440D01*
X41200000Y-20697440D01*
X41447765Y-20648157D01*
X41467456Y-20635000D01*
X44138217Y-20635000D01*
X44250000Y-20657235D01*
X44361783Y-20635000D01*
X44692855Y-20569146D01*
X45068289Y-20318289D01*
X45131613Y-20223518D01*
X45970132Y-19385000D01*
X46685654Y-19385000D01*
X46440034Y-19630620D01*
G36*
X29077702Y-13826818D02*
X29236452Y-13985568D01*
X30210702Y-13985568D01*
X30210702Y-13965568D01*
X30464702Y-13965568D01*
X30464702Y-13985568D01*
X31438952Y-13985568D01*
X31597702Y-13826818D01*
X31597702Y-13460000D01*
X32077702Y-13460000D01*
X32077702Y-13826818D01*
X32236452Y-13985568D01*
X33210702Y-13985568D01*
X33210702Y-13965568D01*
X33464702Y-13965568D01*
X33464702Y-13985568D01*
X34438952Y-13985568D01*
X34597702Y-13826818D01*
X34597702Y-13460000D01*
X35077702Y-13460000D01*
X35077702Y-13826818D01*
X35236452Y-13985568D01*
X36210702Y-13985568D01*
X36210702Y-13965568D01*
X36464702Y-13965568D01*
X36464702Y-13985568D01*
X37438952Y-13985568D01*
X37597702Y-13826818D01*
X37597702Y-13460000D01*
X38327702Y-13460000D01*
X38327702Y-13826818D01*
X38486452Y-13985568D01*
X39460702Y-13985568D01*
X39460702Y-13965568D01*
X39714702Y-13965568D01*
X39714702Y-13985568D01*
X40688952Y-13985568D01*
X40847702Y-13826818D01*
X40847702Y-13460000D01*
X41577702Y-13460000D01*
X41577702Y-13826818D01*
X41736452Y-13985568D01*
X42710702Y-13985568D01*
X42710702Y-13965568D01*
X42964702Y-13965568D01*
X42964702Y-13985568D01*
X43938952Y-13985568D01*
X44097702Y-13826818D01*
X44097702Y-13460000D01*
X52040001Y-13460000D01*
X52040001Y-18412809D01*
X51973524Y-18368391D01*
X51131612Y-17526481D01*
X51068289Y-17431711D01*
X50692855Y-17180854D01*
X50361783Y-17115000D01*
X50250000Y-17092765D01*
X50138217Y-17115000D01*
X49784608Y-17115000D01*
X49763972Y-17094364D01*
X50082739Y-16934582D01*
X50392723Y-16143813D01*
X50376497Y-15294613D01*
X50082739Y-14585418D01*
X49763970Y-14425635D01*
X48429605Y-15760000D01*
X48443748Y-15774143D01*
X48264143Y-15953748D01*
X48250000Y-15939605D01*
X48235858Y-15953748D01*
X48056253Y-15774143D01*
X48070395Y-15760000D01*
X46736030Y-14425635D01*
X46417261Y-14585418D01*
X46107277Y-15376187D01*
X46123503Y-16225387D01*
X46417261Y-16934582D01*
X46736028Y-17094364D01*
X46715392Y-17115000D01*
X45611783Y-17115000D01*
X45500000Y-17092765D01*
X45388217Y-17115000D01*
X45057145Y-17180854D01*
X44681711Y-17431711D01*
X44618389Y-17526479D01*
X43779869Y-18365000D01*
X41467456Y-18365000D01*
X41447765Y-18351843D01*
X41200000Y-18302560D01*
X40100000Y-18302560D01*
X39852235Y-18351843D01*
X39745365Y-18423252D01*
X39707145Y-18430854D01*
X39331711Y-18681711D01*
X39080854Y-19057145D01*
X39047440Y-19225129D01*
X39047440Y-18950000D01*
X38998157Y-18702235D01*
X38857809Y-18492191D01*
X38647765Y-18351843D01*
X38400000Y-18302560D01*
X37300000Y-18302560D01*
X37052235Y-18351843D01*
X37032544Y-18365000D01*
X35135000Y-18365000D01*
X35135000Y-17747568D01*
X35206243Y-17747568D01*
X35254893Y-17820377D01*
X35464937Y-17960725D01*
X35712702Y-18010008D01*
X36962702Y-18010008D01*
X37210467Y-17960725D01*
X37420511Y-17820377D01*
X37469161Y-17747568D01*
X38456243Y-17747568D01*
X38504893Y-17820377D01*
X38714937Y-17960725D01*
X38962702Y-18010008D01*
X40212702Y-18010008D01*
X40460467Y-17960725D01*
X40670511Y-17820377D01*
X40719161Y-17747568D01*
X41706243Y-17747568D01*
X41754893Y-17820377D01*
X41964937Y-17960725D01*
X42212702Y-18010008D01*
X43462702Y-18010008D01*
X43710467Y-17960725D01*
X43920511Y-17820377D01*
X44060859Y-17610333D01*
X44110142Y-17362568D01*
X44110142Y-15862568D01*
X44060859Y-15614803D01*
X43920511Y-15404759D01*
X43859382Y-15363914D01*
X44001029Y-15222266D01*
X44097702Y-14988877D01*
X44097702Y-14398318D01*
X43945414Y-14246030D01*
X46915635Y-14246030D01*
X48250000Y-15580395D01*
X49584365Y-14246030D01*
X49424582Y-13927261D01*
X48633813Y-13617277D01*
X47784613Y-13633503D01*
X47075418Y-13927261D01*
X46915635Y-14246030D01*
X43945414Y-14246030D01*
X43938952Y-14239568D01*
X42964702Y-14239568D01*
X42964702Y-14259568D01*
X42710702Y-14259568D01*
X42710702Y-14239568D01*
X41736452Y-14239568D01*
X41577702Y-14398318D01*
X41577702Y-14988877D01*
X41674375Y-15222266D01*
X41816022Y-15363914D01*
X41754893Y-15404759D01*
X41706243Y-15477568D01*
X40719161Y-15477568D01*
X40670511Y-15404759D01*
X40609382Y-15363914D01*
X40751029Y-15222266D01*
X40847702Y-14988877D01*
X40847702Y-14398318D01*
X40688952Y-14239568D01*
X39714702Y-14239568D01*
X39714702Y-14259568D01*
X39460702Y-14259568D01*
X39460702Y-14239568D01*
X38486452Y-14239568D01*
X38327702Y-14398318D01*
X38327702Y-14988877D01*
X38424375Y-15222266D01*
X38566022Y-15363914D01*
X38504893Y-15404759D01*
X38456243Y-15477568D01*
X37469161Y-15477568D01*
X37420511Y-15404759D01*
X37359382Y-15363914D01*
X37501029Y-15222266D01*
X37597702Y-14988877D01*
X37597702Y-14398318D01*
X37438952Y-14239568D01*
X36464702Y-14239568D01*
X36464702Y-14259568D01*
X36210702Y-14259568D01*
X36210702Y-14239568D01*
X35236452Y-14239568D01*
X35077702Y-14398318D01*
X35077702Y-14988877D01*
X35174375Y-15222266D01*
X35316022Y-15363914D01*
X35254893Y-15404759D01*
X35206243Y-15477568D01*
X34469161Y-15477568D01*
X34420511Y-15404759D01*
X34359382Y-15363914D01*
X34501029Y-15222266D01*
X34597702Y-14988877D01*
X34597702Y-14398318D01*
X34438952Y-14239568D01*
X33464702Y-14239568D01*
X33464702Y-14259568D01*
X33210702Y-14259568D01*
X33210702Y-14239568D01*
X32236452Y-14239568D01*
X32077702Y-14398318D01*
X32077702Y-14988877D01*
X32174375Y-15222266D01*
X32316022Y-15363914D01*
X32254893Y-15404759D01*
X32206243Y-15477568D01*
X31469161Y-15477568D01*
X31420511Y-15404759D01*
X31359382Y-15363914D01*
X31501029Y-15222266D01*
X31597702Y-14988877D01*
X31597702Y-14398318D01*
X31438952Y-14239568D01*
X30464702Y-14239568D01*
X30464702Y-14259568D01*
X30210702Y-14259568D01*
X30210702Y-14239568D01*
X29236452Y-14239568D01*
X29077702Y-14398318D01*
X29077702Y-14988877D01*
X29174375Y-15222266D01*
X29316022Y-15363914D01*
X29254893Y-15404759D01*
X29114545Y-15614803D01*
X29080333Y-15786802D01*
X29069143Y-15794279D01*
X29005823Y-15889044D01*
X28461271Y-16433597D01*
X28485000Y-16376309D01*
X28485000Y-15285750D01*
X28326250Y-15127000D01*
X27127000Y-15127000D01*
X27127000Y-16726250D01*
X27285750Y-16885000D01*
X27976310Y-16885000D01*
X28033597Y-16861271D01*
X26276480Y-18618389D01*
X26181712Y-18681711D01*
X26002447Y-18950000D01*
X25930854Y-19057146D01*
X25919127Y-19116101D01*
X25884699Y-19081673D01*
X25651310Y-18985000D01*
X25485750Y-18985000D01*
X25327000Y-19143750D01*
X25327000Y-20273000D01*
X25347000Y-20273000D01*
X25347000Y-20527000D01*
X25327000Y-20527000D01*
X25327000Y-20547000D01*
X25222440Y-20547000D01*
X25222440Y-19620000D01*
X25173157Y-19372235D01*
X25135000Y-19315129D01*
X25135000Y-18587161D01*
X25152337Y-18500000D01*
X25135000Y-18412839D01*
X25135000Y-18412835D01*
X25083652Y-18154690D01*
X24888049Y-17861951D01*
X24814154Y-17812576D01*
X24437425Y-17435847D01*
X24388049Y-17361951D01*
X24095310Y-17166348D01*
X23837165Y-17115000D01*
X23837161Y-17115000D01*
X23750000Y-17097663D01*
X23662839Y-17115000D01*
X23616579Y-17115000D01*
X22991257Y-16489679D01*
X23190000Y-16192239D01*
X23389375Y-16490625D01*
X23880582Y-16818839D01*
X24460000Y-16934092D01*
X25039417Y-16818839D01*
X25530625Y-16490625D01*
X25550210Y-16461314D01*
X25611673Y-16609698D01*
X25790301Y-16788327D01*
X26023690Y-16885000D01*
X26714250Y-16885000D01*
X26873000Y-16726250D01*
X26873000Y-15127000D01*
X26853000Y-15127000D01*
X26853000Y-14873000D01*
X26873000Y-14873000D01*
X26873000Y-14853000D01*
X27127000Y-14853000D01*
X27127000Y-14873000D01*
X28326250Y-14873000D01*
X28485000Y-14714250D01*
X28485000Y-13623691D01*
X28417197Y-13460000D01*
X29077702Y-13460000D01*
X29077702Y-13826818D01*
X29077702Y-13826818D01*
G37*
X29077702Y-13826818D02*
X29236452Y-13985568D01*
X30210702Y-13985568D01*
X30210702Y-13965568D01*
X30464702Y-13965568D01*
X30464702Y-13985568D01*
X31438952Y-13985568D01*
X31597702Y-13826818D01*
X31597702Y-13460000D01*
X32077702Y-13460000D01*
X32077702Y-13826818D01*
X32236452Y-13985568D01*
X33210702Y-13985568D01*
X33210702Y-13965568D01*
X33464702Y-13965568D01*
X33464702Y-13985568D01*
X34438952Y-13985568D01*
X34597702Y-13826818D01*
X34597702Y-13460000D01*
X35077702Y-13460000D01*
X35077702Y-13826818D01*
X35236452Y-13985568D01*
X36210702Y-13985568D01*
X36210702Y-13965568D01*
X36464702Y-13965568D01*
X36464702Y-13985568D01*
X37438952Y-13985568D01*
X37597702Y-13826818D01*
X37597702Y-13460000D01*
X38327702Y-13460000D01*
X38327702Y-13826818D01*
X38486452Y-13985568D01*
X39460702Y-13985568D01*
X39460702Y-13965568D01*
X39714702Y-13965568D01*
X39714702Y-13985568D01*
X40688952Y-13985568D01*
X40847702Y-13826818D01*
X40847702Y-13460000D01*
X41577702Y-13460000D01*
X41577702Y-13826818D01*
X41736452Y-13985568D01*
X42710702Y-13985568D01*
X42710702Y-13965568D01*
X42964702Y-13965568D01*
X42964702Y-13985568D01*
X43938952Y-13985568D01*
X44097702Y-13826818D01*
X44097702Y-13460000D01*
X52040001Y-13460000D01*
X52040001Y-18412809D01*
X51973524Y-18368391D01*
X51131612Y-17526481D01*
X51068289Y-17431711D01*
X50692855Y-17180854D01*
X50361783Y-17115000D01*
X50250000Y-17092765D01*
X50138217Y-17115000D01*
X49784608Y-17115000D01*
X49763972Y-17094364D01*
X50082739Y-16934582D01*
X50392723Y-16143813D01*
X50376497Y-15294613D01*
X50082739Y-14585418D01*
X49763970Y-14425635D01*
X48429605Y-15760000D01*
X48443748Y-15774143D01*
X48264143Y-15953748D01*
X48250000Y-15939605D01*
X48235858Y-15953748D01*
X48056253Y-15774143D01*
X48070395Y-15760000D01*
X46736030Y-14425635D01*
X46417261Y-14585418D01*
X46107277Y-15376187D01*
X46123503Y-16225387D01*
X46417261Y-16934582D01*
X46736028Y-17094364D01*
X46715392Y-17115000D01*
X45611783Y-17115000D01*
X45500000Y-17092765D01*
X45388217Y-17115000D01*
X45057145Y-17180854D01*
X44681711Y-17431711D01*
X44618389Y-17526479D01*
X43779869Y-18365000D01*
X41467456Y-18365000D01*
X41447765Y-18351843D01*
X41200000Y-18302560D01*
X40100000Y-18302560D01*
X39852235Y-18351843D01*
X39745365Y-18423252D01*
X39707145Y-18430854D01*
X39331711Y-18681711D01*
X39080854Y-19057145D01*
X39047440Y-19225129D01*
X39047440Y-18950000D01*
X38998157Y-18702235D01*
X38857809Y-18492191D01*
X38647765Y-18351843D01*
X38400000Y-18302560D01*
X37300000Y-18302560D01*
X37052235Y-18351843D01*
X37032544Y-18365000D01*
X35135000Y-18365000D01*
X35135000Y-17747568D01*
X35206243Y-17747568D01*
X35254893Y-17820377D01*
X35464937Y-17960725D01*
X35712702Y-18010008D01*
X36962702Y-18010008D01*
X37210467Y-17960725D01*
X37420511Y-17820377D01*
X37469161Y-17747568D01*
X38456243Y-17747568D01*
X38504893Y-17820377D01*
X38714937Y-17960725D01*
X38962702Y-18010008D01*
X40212702Y-18010008D01*
X40460467Y-17960725D01*
X40670511Y-17820377D01*
X40719161Y-17747568D01*
X41706243Y-17747568D01*
X41754893Y-17820377D01*
X41964937Y-17960725D01*
X42212702Y-18010008D01*
X43462702Y-18010008D01*
X43710467Y-17960725D01*
X43920511Y-17820377D01*
X44060859Y-17610333D01*
X44110142Y-17362568D01*
X44110142Y-15862568D01*
X44060859Y-15614803D01*
X43920511Y-15404759D01*
X43859382Y-15363914D01*
X44001029Y-15222266D01*
X44097702Y-14988877D01*
X44097702Y-14398318D01*
X43945414Y-14246030D01*
X46915635Y-14246030D01*
X48250000Y-15580395D01*
X49584365Y-14246030D01*
X49424582Y-13927261D01*
X48633813Y-13617277D01*
X47784613Y-13633503D01*
X47075418Y-13927261D01*
X46915635Y-14246030D01*
X43945414Y-14246030D01*
X43938952Y-14239568D01*
X42964702Y-14239568D01*
X42964702Y-14259568D01*
X42710702Y-14259568D01*
X42710702Y-14239568D01*
X41736452Y-14239568D01*
X41577702Y-14398318D01*
X41577702Y-14988877D01*
X41674375Y-15222266D01*
X41816022Y-15363914D01*
X41754893Y-15404759D01*
X41706243Y-15477568D01*
X40719161Y-15477568D01*
X40670511Y-15404759D01*
X40609382Y-15363914D01*
X40751029Y-15222266D01*
X40847702Y-14988877D01*
X40847702Y-14398318D01*
X40688952Y-14239568D01*
X39714702Y-14239568D01*
X39714702Y-14259568D01*
X39460702Y-14259568D01*
X39460702Y-14239568D01*
X38486452Y-14239568D01*
X38327702Y-14398318D01*
X38327702Y-14988877D01*
X38424375Y-15222266D01*
X38566022Y-15363914D01*
X38504893Y-15404759D01*
X38456243Y-15477568D01*
X37469161Y-15477568D01*
X37420511Y-15404759D01*
X37359382Y-15363914D01*
X37501029Y-15222266D01*
X37597702Y-14988877D01*
X37597702Y-14398318D01*
X37438952Y-14239568D01*
X36464702Y-14239568D01*
X36464702Y-14259568D01*
X36210702Y-14259568D01*
X36210702Y-14239568D01*
X35236452Y-14239568D01*
X35077702Y-14398318D01*
X35077702Y-14988877D01*
X35174375Y-15222266D01*
X35316022Y-15363914D01*
X35254893Y-15404759D01*
X35206243Y-15477568D01*
X34469161Y-15477568D01*
X34420511Y-15404759D01*
X34359382Y-15363914D01*
X34501029Y-15222266D01*
X34597702Y-14988877D01*
X34597702Y-14398318D01*
X34438952Y-14239568D01*
X33464702Y-14239568D01*
X33464702Y-14259568D01*
X33210702Y-14259568D01*
X33210702Y-14239568D01*
X32236452Y-14239568D01*
X32077702Y-14398318D01*
X32077702Y-14988877D01*
X32174375Y-15222266D01*
X32316022Y-15363914D01*
X32254893Y-15404759D01*
X32206243Y-15477568D01*
X31469161Y-15477568D01*
X31420511Y-15404759D01*
X31359382Y-15363914D01*
X31501029Y-15222266D01*
X31597702Y-14988877D01*
X31597702Y-14398318D01*
X31438952Y-14239568D01*
X30464702Y-14239568D01*
X30464702Y-14259568D01*
X30210702Y-14259568D01*
X30210702Y-14239568D01*
X29236452Y-14239568D01*
X29077702Y-14398318D01*
X29077702Y-14988877D01*
X29174375Y-15222266D01*
X29316022Y-15363914D01*
X29254893Y-15404759D01*
X29114545Y-15614803D01*
X29080333Y-15786802D01*
X29069143Y-15794279D01*
X29005823Y-15889044D01*
X28461271Y-16433597D01*
X28485000Y-16376309D01*
X28485000Y-15285750D01*
X28326250Y-15127000D01*
X27127000Y-15127000D01*
X27127000Y-16726250D01*
X27285750Y-16885000D01*
X27976310Y-16885000D01*
X28033597Y-16861271D01*
X26276480Y-18618389D01*
X26181712Y-18681711D01*
X26002447Y-18950000D01*
X25930854Y-19057146D01*
X25919127Y-19116101D01*
X25884699Y-19081673D01*
X25651310Y-18985000D01*
X25485750Y-18985000D01*
X25327000Y-19143750D01*
X25327000Y-20273000D01*
X25347000Y-20273000D01*
X25347000Y-20527000D01*
X25327000Y-20527000D01*
X25327000Y-20547000D01*
X25222440Y-20547000D01*
X25222440Y-19620000D01*
X25173157Y-19372235D01*
X25135000Y-19315129D01*
X25135000Y-18587161D01*
X25152337Y-18500000D01*
X25135000Y-18412839D01*
X25135000Y-18412835D01*
X25083652Y-18154690D01*
X24888049Y-17861951D01*
X24814154Y-17812576D01*
X24437425Y-17435847D01*
X24388049Y-17361951D01*
X24095310Y-17166348D01*
X23837165Y-17115000D01*
X23837161Y-17115000D01*
X23750000Y-17097663D01*
X23662839Y-17115000D01*
X23616579Y-17115000D01*
X22991257Y-16489679D01*
X23190000Y-16192239D01*
X23389375Y-16490625D01*
X23880582Y-16818839D01*
X24460000Y-16934092D01*
X25039417Y-16818839D01*
X25530625Y-16490625D01*
X25550210Y-16461314D01*
X25611673Y-16609698D01*
X25790301Y-16788327D01*
X26023690Y-16885000D01*
X26714250Y-16885000D01*
X26873000Y-16726250D01*
X26873000Y-15127000D01*
X26853000Y-15127000D01*
X26853000Y-14873000D01*
X26873000Y-14873000D01*
X26873000Y-14853000D01*
X27127000Y-14853000D01*
X27127000Y-14873000D01*
X28326250Y-14873000D01*
X28485000Y-14714250D01*
X28485000Y-13623691D01*
X28417197Y-13460000D01*
X29077702Y-13460000D01*
X29077702Y-13826818D01*
G04 #@! TD*
M02*
