G04 #@! TF.GenerationSoftware,KiCad,Pcbnew,5.0.0-fee4fd1~66~ubuntu18.04.1*
G04 #@! TF.CreationDate,2018-10-07T19:31:30+08:00*
G04 #@! TF.ProjectId,ws2812-stm32-interface,7773323831322D73746D33322D696E74,rev?*
G04 #@! TF.SameCoordinates,Original*
G04 #@! TF.FileFunction,Copper,L2,Bot,Signal*
G04 #@! TF.FilePolarity,Positive*
%FSLAX46Y46*%
G04 Gerber Fmt 4.6, Leading zero omitted, Abs format (unit mm)*
G04 Created by KiCad (PCBNEW 5.0.0-fee4fd1~66~ubuntu18.04.1) date Sun Oct  7 19:31:30 2018*
%MOMM*%
%LPD*%
G01*
G04 APERTURE LIST*
G04 #@! TA.AperFunction,ComponentPad*
%ADD10C,3.000000*%
G04 #@! TD*
G04 #@! TA.AperFunction,ComponentPad*
%ADD11R,3.000000X3.000000*%
G04 #@! TD*
G04 #@! TA.AperFunction,ComponentPad*
%ADD12O,1.700000X2.540000*%
G04 #@! TD*
G04 #@! TA.AperFunction,ComponentPad*
%ADD13R,1.700000X2.500000*%
G04 #@! TD*
G04 #@! TA.AperFunction,ViaPad*
%ADD14C,2.000000*%
G04 #@! TD*
G04 #@! TA.AperFunction,ViaPad*
%ADD15C,0.800000*%
G04 #@! TD*
G04 #@! TA.AperFunction,ViaPad*
%ADD16C,1.200000*%
G04 #@! TD*
G04 #@! TA.AperFunction,Conductor*
%ADD17C,1.000000*%
G04 #@! TD*
G04 #@! TA.AperFunction,Conductor*
%ADD18C,0.500000*%
G04 #@! TD*
G04 #@! TA.AperFunction,Conductor*
%ADD19C,0.254000*%
G04 #@! TD*
G04 APERTURE END LIST*
D10*
G04 #@! TO.P,J2,4*
G04 #@! TO.N,GND*
X48250000Y-15760000D03*
D11*
G04 #@! TO.P,J2,1*
G04 #@! TO.N,V_EXT_LED*
X48250000Y-31000000D03*
D10*
G04 #@! TO.P,J2,3*
G04 #@! TO.N,/PWM_TO_LED*
X48250000Y-20840000D03*
G04 #@! TO.P,J2,2*
G04 #@! TO.N,VCC*
X48250000Y-25920000D03*
G04 #@! TD*
D12*
G04 #@! TO.P,J1,3*
G04 #@! TO.N,/MCU_LED_PWM*
X21920000Y-15000000D03*
G04 #@! TO.P,J1,2*
G04 #@! TO.N,+5V*
X24460000Y-15000000D03*
D13*
G04 #@! TO.P,J1,1*
G04 #@! TO.N,GND*
X27000000Y-15000000D03*
G04 #@! TD*
D14*
G04 #@! TO.N,+5V*
X29000000Y-20500000D03*
G04 #@! TO.N,GND*
X31250000Y-22750000D03*
X21250000Y-20500000D03*
D15*
X40500000Y-23000000D03*
D16*
G04 #@! TO.N,/PWM_TO_LED*
X23250000Y-26750000D03*
G04 #@! TD*
D17*
G04 #@! TO.N,+5V*
X24460000Y-15000000D02*
X24460000Y-17460000D01*
X24460000Y-17460000D02*
X27500000Y-20500000D01*
X27500000Y-20500000D02*
X29000000Y-20500000D01*
G04 #@! TO.N,GND*
X29500000Y-15000000D02*
X27000000Y-15000000D01*
X31250000Y-22750000D02*
X31500000Y-22500000D01*
X31500000Y-17000000D02*
X29500000Y-15000000D01*
X31500000Y-22500000D02*
X31500000Y-17000000D01*
X31250000Y-22750000D02*
X22000000Y-22750000D01*
X22000000Y-22750000D02*
X21250000Y-22000000D01*
X21250000Y-22000000D02*
X21250000Y-20500000D01*
D18*
G04 #@! TO.N,/PWM_TO_LED*
X45910000Y-20840000D02*
X43000000Y-23750000D01*
X48250000Y-20840000D02*
X45910000Y-20840000D01*
X43000000Y-23750000D02*
X43000000Y-30500000D01*
X43000000Y-30500000D02*
X41500000Y-32000000D01*
X23250000Y-30750000D02*
X24500000Y-32000000D01*
X23250000Y-26750000D02*
X23250000Y-30750000D01*
X41500000Y-32000000D02*
X24500000Y-32000000D01*
G04 #@! TD*
D19*
G04 #@! TO.N,GND*
G36*
X52040000Y-33290000D02*
X20460000Y-33290000D01*
X20460000Y-26504343D01*
X22015000Y-26504343D01*
X22015000Y-26995657D01*
X22203018Y-27449571D01*
X22365000Y-27611553D01*
X22365001Y-30662835D01*
X22347663Y-30750000D01*
X22416348Y-31095309D01*
X22562576Y-31314154D01*
X22562578Y-31314156D01*
X22611952Y-31388049D01*
X22685845Y-31437423D01*
X23812577Y-32564156D01*
X23861951Y-32638049D01*
X23935844Y-32687423D01*
X23935845Y-32687424D01*
X24154690Y-32833652D01*
X24412835Y-32885000D01*
X24412839Y-32885000D01*
X24500000Y-32902337D01*
X24587161Y-32885000D01*
X41412839Y-32885000D01*
X41500000Y-32902337D01*
X41587161Y-32885000D01*
X41587165Y-32885000D01*
X41845310Y-32833652D01*
X42138049Y-32638049D01*
X42187425Y-32564153D01*
X43564156Y-31187423D01*
X43638049Y-31138049D01*
X43833652Y-30845310D01*
X43885000Y-30587165D01*
X43885000Y-30587161D01*
X43902337Y-30500001D01*
X43885000Y-30412841D01*
X43885000Y-29500000D01*
X46102560Y-29500000D01*
X46102560Y-32500000D01*
X46151843Y-32747765D01*
X46292191Y-32957809D01*
X46502235Y-33098157D01*
X46750000Y-33147440D01*
X49750000Y-33147440D01*
X49997765Y-33098157D01*
X50207809Y-32957809D01*
X50348157Y-32747765D01*
X50397440Y-32500000D01*
X50397440Y-29500000D01*
X50348157Y-29252235D01*
X50207809Y-29042191D01*
X49997765Y-28901843D01*
X49750000Y-28852560D01*
X46750000Y-28852560D01*
X46502235Y-28901843D01*
X46292191Y-29042191D01*
X46151843Y-29252235D01*
X46102560Y-29500000D01*
X43885000Y-29500000D01*
X43885000Y-25495322D01*
X46115000Y-25495322D01*
X46115000Y-26344678D01*
X46440034Y-27129380D01*
X47040620Y-27729966D01*
X47825322Y-28055000D01*
X48674678Y-28055000D01*
X49459380Y-27729966D01*
X50059966Y-27129380D01*
X50385000Y-26344678D01*
X50385000Y-25495322D01*
X50059966Y-24710620D01*
X49459380Y-24110034D01*
X48674678Y-23785000D01*
X47825322Y-23785000D01*
X47040620Y-24110034D01*
X46440034Y-24710620D01*
X46115000Y-25495322D01*
X43885000Y-25495322D01*
X43885000Y-24116578D01*
X46276579Y-21725000D01*
X46305671Y-21725000D01*
X46440034Y-22049380D01*
X47040620Y-22649966D01*
X47825322Y-22975000D01*
X48674678Y-22975000D01*
X49459380Y-22649966D01*
X50059966Y-22049380D01*
X50385000Y-21264678D01*
X50385000Y-20415322D01*
X50059966Y-19630620D01*
X49459380Y-19030034D01*
X48674678Y-18705000D01*
X47825322Y-18705000D01*
X47040620Y-19030034D01*
X46440034Y-19630620D01*
X46305671Y-19955000D01*
X45997159Y-19955000D01*
X45909999Y-19937663D01*
X45822839Y-19955000D01*
X45822835Y-19955000D01*
X45564690Y-20006348D01*
X45564688Y-20006349D01*
X45564689Y-20006349D01*
X45345845Y-20152576D01*
X45345844Y-20152577D01*
X45271951Y-20201951D01*
X45222577Y-20275844D01*
X42435847Y-23062575D01*
X42361951Y-23111951D01*
X42166348Y-23404691D01*
X42115000Y-23662836D01*
X42115000Y-23662839D01*
X42097663Y-23750000D01*
X42115000Y-23837161D01*
X42115001Y-30133420D01*
X41133422Y-31115000D01*
X24866579Y-31115000D01*
X24135000Y-30383422D01*
X24135000Y-27611553D01*
X24296982Y-27449571D01*
X24485000Y-26995657D01*
X24485000Y-26504343D01*
X24296982Y-26050429D01*
X23949571Y-25703018D01*
X23495657Y-25515000D01*
X23004343Y-25515000D01*
X22550429Y-25703018D01*
X22203018Y-26050429D01*
X22015000Y-26504343D01*
X20460000Y-26504343D01*
X20460000Y-15691939D01*
X20521161Y-15999417D01*
X20849375Y-16490625D01*
X21340582Y-16818839D01*
X21920000Y-16934092D01*
X22499417Y-16818839D01*
X22990625Y-16490625D01*
X23190000Y-16192239D01*
X23325001Y-16394282D01*
X23325001Y-17348212D01*
X23302765Y-17460000D01*
X23390854Y-17902854D01*
X23390855Y-17902855D01*
X23641712Y-18278289D01*
X23736480Y-18341611D01*
X26618389Y-21223521D01*
X26681711Y-21318289D01*
X27057145Y-21569146D01*
X27388217Y-21635000D01*
X27499999Y-21657235D01*
X27611781Y-21635000D01*
X27822761Y-21635000D01*
X28073847Y-21886086D01*
X28674778Y-22135000D01*
X29325222Y-22135000D01*
X29926153Y-21886086D01*
X30386086Y-21426153D01*
X30635000Y-20825222D01*
X30635000Y-20174778D01*
X30386086Y-19573847D01*
X29926153Y-19113914D01*
X29325222Y-18865000D01*
X28674778Y-18865000D01*
X28073847Y-19113914D01*
X27896446Y-19291315D01*
X25879101Y-17273970D01*
X46915635Y-17273970D01*
X47075418Y-17592739D01*
X47866187Y-17902723D01*
X48715387Y-17886497D01*
X49424582Y-17592739D01*
X49584365Y-17273970D01*
X48250000Y-15939605D01*
X46915635Y-17273970D01*
X25879101Y-17273970D01*
X25595000Y-16989869D01*
X25595000Y-16569446D01*
X25611673Y-16609698D01*
X25790301Y-16788327D01*
X26023690Y-16885000D01*
X26714250Y-16885000D01*
X26873000Y-16726250D01*
X26873000Y-15127000D01*
X27127000Y-15127000D01*
X27127000Y-16726250D01*
X27285750Y-16885000D01*
X27976310Y-16885000D01*
X28209699Y-16788327D01*
X28388327Y-16609698D01*
X28485000Y-16376309D01*
X28485000Y-15376187D01*
X46107277Y-15376187D01*
X46123503Y-16225387D01*
X46417261Y-16934582D01*
X46736030Y-17094365D01*
X48070395Y-15760000D01*
X48429605Y-15760000D01*
X49763970Y-17094365D01*
X50082739Y-16934582D01*
X50392723Y-16143813D01*
X50376497Y-15294613D01*
X50082739Y-14585418D01*
X49763970Y-14425635D01*
X48429605Y-15760000D01*
X48070395Y-15760000D01*
X46736030Y-14425635D01*
X46417261Y-14585418D01*
X46107277Y-15376187D01*
X28485000Y-15376187D01*
X28485000Y-15285750D01*
X28326250Y-15127000D01*
X27127000Y-15127000D01*
X26873000Y-15127000D01*
X26853000Y-15127000D01*
X26853000Y-14873000D01*
X26873000Y-14873000D01*
X26873000Y-14853000D01*
X27127000Y-14853000D01*
X27127000Y-14873000D01*
X28326250Y-14873000D01*
X28485000Y-14714250D01*
X28485000Y-14246030D01*
X46915635Y-14246030D01*
X48250000Y-15580395D01*
X49584365Y-14246030D01*
X49424582Y-13927261D01*
X48633813Y-13617277D01*
X47784613Y-13633503D01*
X47075418Y-13927261D01*
X46915635Y-14246030D01*
X28485000Y-14246030D01*
X28485000Y-13623691D01*
X28417197Y-13460000D01*
X52040001Y-13460000D01*
X52040000Y-33290000D01*
X52040000Y-33290000D01*
G37*
X52040000Y-33290000D02*
X20460000Y-33290000D01*
X20460000Y-26504343D01*
X22015000Y-26504343D01*
X22015000Y-26995657D01*
X22203018Y-27449571D01*
X22365000Y-27611553D01*
X22365001Y-30662835D01*
X22347663Y-30750000D01*
X22416348Y-31095309D01*
X22562576Y-31314154D01*
X22562578Y-31314156D01*
X22611952Y-31388049D01*
X22685845Y-31437423D01*
X23812577Y-32564156D01*
X23861951Y-32638049D01*
X23935844Y-32687423D01*
X23935845Y-32687424D01*
X24154690Y-32833652D01*
X24412835Y-32885000D01*
X24412839Y-32885000D01*
X24500000Y-32902337D01*
X24587161Y-32885000D01*
X41412839Y-32885000D01*
X41500000Y-32902337D01*
X41587161Y-32885000D01*
X41587165Y-32885000D01*
X41845310Y-32833652D01*
X42138049Y-32638049D01*
X42187425Y-32564153D01*
X43564156Y-31187423D01*
X43638049Y-31138049D01*
X43833652Y-30845310D01*
X43885000Y-30587165D01*
X43885000Y-30587161D01*
X43902337Y-30500001D01*
X43885000Y-30412841D01*
X43885000Y-29500000D01*
X46102560Y-29500000D01*
X46102560Y-32500000D01*
X46151843Y-32747765D01*
X46292191Y-32957809D01*
X46502235Y-33098157D01*
X46750000Y-33147440D01*
X49750000Y-33147440D01*
X49997765Y-33098157D01*
X50207809Y-32957809D01*
X50348157Y-32747765D01*
X50397440Y-32500000D01*
X50397440Y-29500000D01*
X50348157Y-29252235D01*
X50207809Y-29042191D01*
X49997765Y-28901843D01*
X49750000Y-28852560D01*
X46750000Y-28852560D01*
X46502235Y-28901843D01*
X46292191Y-29042191D01*
X46151843Y-29252235D01*
X46102560Y-29500000D01*
X43885000Y-29500000D01*
X43885000Y-25495322D01*
X46115000Y-25495322D01*
X46115000Y-26344678D01*
X46440034Y-27129380D01*
X47040620Y-27729966D01*
X47825322Y-28055000D01*
X48674678Y-28055000D01*
X49459380Y-27729966D01*
X50059966Y-27129380D01*
X50385000Y-26344678D01*
X50385000Y-25495322D01*
X50059966Y-24710620D01*
X49459380Y-24110034D01*
X48674678Y-23785000D01*
X47825322Y-23785000D01*
X47040620Y-24110034D01*
X46440034Y-24710620D01*
X46115000Y-25495322D01*
X43885000Y-25495322D01*
X43885000Y-24116578D01*
X46276579Y-21725000D01*
X46305671Y-21725000D01*
X46440034Y-22049380D01*
X47040620Y-22649966D01*
X47825322Y-22975000D01*
X48674678Y-22975000D01*
X49459380Y-22649966D01*
X50059966Y-22049380D01*
X50385000Y-21264678D01*
X50385000Y-20415322D01*
X50059966Y-19630620D01*
X49459380Y-19030034D01*
X48674678Y-18705000D01*
X47825322Y-18705000D01*
X47040620Y-19030034D01*
X46440034Y-19630620D01*
X46305671Y-19955000D01*
X45997159Y-19955000D01*
X45909999Y-19937663D01*
X45822839Y-19955000D01*
X45822835Y-19955000D01*
X45564690Y-20006348D01*
X45564688Y-20006349D01*
X45564689Y-20006349D01*
X45345845Y-20152576D01*
X45345844Y-20152577D01*
X45271951Y-20201951D01*
X45222577Y-20275844D01*
X42435847Y-23062575D01*
X42361951Y-23111951D01*
X42166348Y-23404691D01*
X42115000Y-23662836D01*
X42115000Y-23662839D01*
X42097663Y-23750000D01*
X42115000Y-23837161D01*
X42115001Y-30133420D01*
X41133422Y-31115000D01*
X24866579Y-31115000D01*
X24135000Y-30383422D01*
X24135000Y-27611553D01*
X24296982Y-27449571D01*
X24485000Y-26995657D01*
X24485000Y-26504343D01*
X24296982Y-26050429D01*
X23949571Y-25703018D01*
X23495657Y-25515000D01*
X23004343Y-25515000D01*
X22550429Y-25703018D01*
X22203018Y-26050429D01*
X22015000Y-26504343D01*
X20460000Y-26504343D01*
X20460000Y-15691939D01*
X20521161Y-15999417D01*
X20849375Y-16490625D01*
X21340582Y-16818839D01*
X21920000Y-16934092D01*
X22499417Y-16818839D01*
X22990625Y-16490625D01*
X23190000Y-16192239D01*
X23325001Y-16394282D01*
X23325001Y-17348212D01*
X23302765Y-17460000D01*
X23390854Y-17902854D01*
X23390855Y-17902855D01*
X23641712Y-18278289D01*
X23736480Y-18341611D01*
X26618389Y-21223521D01*
X26681711Y-21318289D01*
X27057145Y-21569146D01*
X27388217Y-21635000D01*
X27499999Y-21657235D01*
X27611781Y-21635000D01*
X27822761Y-21635000D01*
X28073847Y-21886086D01*
X28674778Y-22135000D01*
X29325222Y-22135000D01*
X29926153Y-21886086D01*
X30386086Y-21426153D01*
X30635000Y-20825222D01*
X30635000Y-20174778D01*
X30386086Y-19573847D01*
X29926153Y-19113914D01*
X29325222Y-18865000D01*
X28674778Y-18865000D01*
X28073847Y-19113914D01*
X27896446Y-19291315D01*
X25879101Y-17273970D01*
X46915635Y-17273970D01*
X47075418Y-17592739D01*
X47866187Y-17902723D01*
X48715387Y-17886497D01*
X49424582Y-17592739D01*
X49584365Y-17273970D01*
X48250000Y-15939605D01*
X46915635Y-17273970D01*
X25879101Y-17273970D01*
X25595000Y-16989869D01*
X25595000Y-16569446D01*
X25611673Y-16609698D01*
X25790301Y-16788327D01*
X26023690Y-16885000D01*
X26714250Y-16885000D01*
X26873000Y-16726250D01*
X26873000Y-15127000D01*
X27127000Y-15127000D01*
X27127000Y-16726250D01*
X27285750Y-16885000D01*
X27976310Y-16885000D01*
X28209699Y-16788327D01*
X28388327Y-16609698D01*
X28485000Y-16376309D01*
X28485000Y-15376187D01*
X46107277Y-15376187D01*
X46123503Y-16225387D01*
X46417261Y-16934582D01*
X46736030Y-17094365D01*
X48070395Y-15760000D01*
X48429605Y-15760000D01*
X49763970Y-17094365D01*
X50082739Y-16934582D01*
X50392723Y-16143813D01*
X50376497Y-15294613D01*
X50082739Y-14585418D01*
X49763970Y-14425635D01*
X48429605Y-15760000D01*
X48070395Y-15760000D01*
X46736030Y-14425635D01*
X46417261Y-14585418D01*
X46107277Y-15376187D01*
X28485000Y-15376187D01*
X28485000Y-15285750D01*
X28326250Y-15127000D01*
X27127000Y-15127000D01*
X26873000Y-15127000D01*
X26853000Y-15127000D01*
X26853000Y-14873000D01*
X26873000Y-14873000D01*
X26873000Y-14853000D01*
X27127000Y-14853000D01*
X27127000Y-14873000D01*
X28326250Y-14873000D01*
X28485000Y-14714250D01*
X28485000Y-14246030D01*
X46915635Y-14246030D01*
X48250000Y-15580395D01*
X49584365Y-14246030D01*
X49424582Y-13927261D01*
X48633813Y-13617277D01*
X47784613Y-13633503D01*
X47075418Y-13927261D01*
X46915635Y-14246030D01*
X28485000Y-14246030D01*
X28485000Y-13623691D01*
X28417197Y-13460000D01*
X52040001Y-13460000D01*
X52040000Y-33290000D01*
G04 #@! TD*
M02*
