M48
;DRILL file {KiCad 5.0.0-fee4fd1~66~ubuntu18.04.1} date Mon Oct  8 14:40:10 2018
;FORMAT={-:-/ absolute / inch / decimal}
FMAT,2
INCH,TZ
T1C0.0157
T2C0.0394
T3C0.0598
%
G90
G05
M72
T1
X0.88Y-1.58
X0.94Y-2.05
X0.99Y-1.36
X1.73Y-0.82
X1.73Y-1.18
X1.73Y-1.52
X1.73Y-1.88
X1.73Y-2.22
X1.73Y-2.58
X1.73Y-2.94
X1.73Y-3.28
X2.09Y-0.82
X2.09Y-1.1714
X2.09Y-1.52
X2.09Y-1.88
X2.09Y-2.22
X2.09Y-2.58
X2.09Y-2.92
X2.09Y-3.28
X2.45Y-0.82
X2.45Y-1.525
X2.45Y-2.225
X2.45Y-2.925
X2.82Y-0.82
X2.825Y-1.175
X2.825Y-1.525
X2.825Y-1.875
X2.825Y-2.225
X2.825Y-2.575
X2.825Y-2.925
X2.825Y-3.275
X3.175Y-1.525
X3.175Y-2.225
X3.175Y-2.925
X3.55Y-0.825
X3.55Y-1.175
X3.55Y-1.525
X3.55Y-1.875
X3.55Y-2.225
X3.55Y-2.575
X3.55Y-2.925
X3.55Y-3.275
X3.9Y-1.525
X3.9Y-2.225
X3.9Y-2.925
X4.275Y-0.825
X4.275Y-1.175
X4.275Y-1.525
X4.275Y-1.875
X4.275Y-2.225
X4.275Y-2.575
X4.275Y-2.925
X4.275Y-3.275
T2
X0.975Y-3.
X0.975Y-3.1
X0.975Y-3.2
X0.975Y-3.3
X1.41Y-1.15
X1.41Y-1.25
X1.41Y-1.35
X0.6894Y-1.8277
X0.7894Y-1.8277
X0.8894Y-1.8277
X0.775Y-3.
X0.775Y-3.1
X0.775Y-3.2
X0.775Y-3.3
T3
X0.7095Y-0.8336
X0.9095Y-0.8336
X1.1095Y-0.8336
X1.3095Y-0.8336
T0
M30
